<svg clip-rule="evenodd" fill-rule="evenodd" viewBox="0 0 240 200" xmlns="http://www.w3.org/2000/svg"><g fill="none"><g stroke="#bebebe" stroke-width=".5"><path d="m125.525 80.65-4.6-.2m-4.5.1 4.5-.1m0-.4v.4m-4.3-.4-.2.5m-4.6.2 4.6-.2m8.9-.4.2.5m4.6.3-4.6-.3m-18.2.5 4.5-.4m.4-.4-.4.4m3.3-78.6h6.3m-.1.5.1-.5m6.4.2-6.4-.2m13.2 79.3-4.5-.5m-.4-.4.4.4m-14.9-78.2-.1-.6m-6.4.4 6.4-.4m12.4.7.3-.5m6.4.4-6.4-.4m-20 78.4-.5.4m-4.5.7 4.5-.7m1.7-78.1-.3-.5m-6.4.6 6.4-.6m25.3 78.5.6.4m4.5.8-4.5-.8m-.9-78.2.5-.5m6.3.8-6.3-.8m-35.9 79.9 4.5-.8m.7-.5-.7.5m.1-78.2-.6-.5m-6.3.9 6.3-.9m41.2 80-4.4-.9m-.8-.5.8.5m7.6-77.7-6.2-1m-.7.5.7-.5m-41.3 78.6-.9.5m-4.3 1 4.3-1m-8.5-77.5 6.2-1.1m.8.4-.8-.4m46.5 78.5 1 .6m4.3 1.1-4.3-1.1m-26.9-3.1h4.3m-.1-1.1.1 1.1m4.4.1-4.4-.1m32-74.2-6.2-1.3m-.9.5.9-.5m-30 74.5-.1 1m-4.4.3 4.4-.3m8.5-.9.2 1m4.4.4-4.4-.4m-12.8-.9-.3 1.1m-4.4.4 4.4-.4m-22.5 4.5 4.3-1.2m1.1-.5-1.1.5m35.3-4.2.4 1.1m4.3.5-4.3-.5m-8.4-76.7v-1.2m6.2.2-6.2-.2m-6.1.1 6.1-.1m-12.3.4 6.2-.3m.2 1.1-.2-1.1m-24.4 2.8-1-.4m-6.1 1.4 6.1-1.4m37.4-1.2.3-1.1m6.2.4-6.2-.4m-24 78.5 4.3-.6m.5-1.1-.5 1.1m1.6-76.6-.4-1.1m-6.1.6 6.1-.6m43 82.5-4.2-1.3m-1.2-.6 1.2.6m-14.4-4.3.6 1.1m4.3.7-4.3-.7m-56.2-72.8-1.3.3m63.3-4.5-6.1-.8m-.5 1.2.5-1.2m25.2 4.1-6-1.5m-1.1.4 1.1-.4m-53.7 76.3 4.3-.8m.6-1.1-.6 1.1m-6.7-76.9 6.1-.8m.6 1.1-.6-1.1m-11.9 80.6-1.3.6m-2.9 1 2.9-1m52.8-2.3-4.2-.8m-.8-1.2.8 1.2m7.5-76.7-6-1m-.7 1.1.7-1.1m-62 4.2 5.9-1.7m1.3.4-1.3-.4m11.4 76.6 4.1-1m.9-1.2-.9 1.2m-1.5-76.6-.9-1.1m-6 1.1 6-1.1m49.8 79.2-4.1-1.1m-.9-1.1.9 1.1m9.3-76.3-6-1.2m-.9 1 .9-1m-29.1 74 4.1-.1m0-1.7v1.7m4.3.2-4.3-.2m43.9-69.8-5.8-1.8m-1.3.4 1.3-.4m-42.1 70-.1 1.7m-4.2.2 4.2-.2m8.2-1.6.2 1.7m4.2.3-4.2-.3m-60.3-66.4 5.8-2.2m1.5-.4-1.5.4m20.4 73.7 4.1-1.1m1-1.2-1 1.2m13.2-3.5 4.2-.4m.2-1.7-.2 1.7m16.4-1.5.4 1.7m4.1.5-4.1-.5m-2.1-75.5-5.9-.1m-5.9 0h5.9m-.1 1.7.1-1.7m-11.9.3 6-.3m.2 1.8-.2-1.8m-30.4 3.1 5.8-1.4m1.1 1.1-1.1-1.1m36.1.2.3-1.8m6 .5-6-.5m-18.5 74-.4 1.7m-4.2.6 4.2-.6m37.2 2.8 1.1 1.2m4 1.2-4-1.2m-43.1-78.9 5.9-.6m.4 1.8-.4-1.8m-37.3 6 5.7-1.9m1.4.3-1.4-.3m55.1 69.9.5 1.8m4.1.6-4.1-.6m5.7-74.8-5.9-.7m-.5 1.8.5-1.8m37.2 6.7 1.6.4m5.6 2.4-5.6-2.4m-21.4-4.3 1.2-1m5.8 1.5-5.8-1.5m-47.1 72.3-.6 1.7m-4 .7 4-.7m-17 5.3 3.9-1.3m1.2-1.2-1.2 1.2m13.2-77.7-.7-1.8m-5.8.8 5.8-.8m38.1 76.7-4.1-.9m-.6-1.7.6 1.7m7.4-74.5-5.8-.9m-.8 1.7.8-1.7m31.3 6-5.7-2m-1.5.3 1.5-.3m-85.5-.6 5.8-1.6m1.3 1-1.3-1m64.4 76.7 1.2 1.2m3.9 1.4-3.9-1.4m-49.8-5.6-.7 1.7m-4 1 4-1m-1.6-73.7-.8-1.7m-5.8 1.1 5.8-1.1m-31.2 6.7-1.7.5m-5.5 2.4 5.5-2.4m80.7 69.7-3.9-1m-.8-1.8.8 1.8m-58.4 5.6 3.9-1.5m1.3-1.3-1.3 1.3m69.1-76.8 1.4-1m5.6 1.7-5.6-1.7m-32.7 69.7-4.1-.2m29.8-70-5.7-1.2m-28.1 71.3 4-.1m23.1-69.5 1-1.7m-24.1 69v2.2m-8.1.3 4.1-.2m.1-2.3-.1 2.3m-43.1-66.9-1.6-.3m-5.6 2.1 5.6-2.1m56.8 67.6-4-.3m-.2-2.3.2 2.3m-32.7 5.6 3.9-1.1m.8-1.8-.8 1.8m16.9-6.7-.3 2.3m-4 .4 4-.4m8.5-69.6v-2.4m5.7.2-5.7-.2m7.4 69.9.3 2.3m4 .4-4-.4m-13.3-72.1 5.6-.1m-11.4.4 5.8-.3m.1 2.4-.1-2.4m-22.6 2.7-1.1-1.7m-5.6 1.3 5.6-1.3m40.8-.4-5.8-.5m-.3 2.4.3-2.4m-22.2 72.8 4-.6m.4-2.3-.4 2.3m44.4 7 1.4 1.3m-5.1-2.6-3.9-1.2m-.9-1.8.9 1.8m-41.3-75.9 5.6-.6m.5 2.4-.5-2.4m-29.1 3.6-1.5-1m-5.5 1.9 5.5-1.9m103.8 8-5.4-2.6m-1.8-.5 1.8.5m-40.7 64.9-4-.7m-.4-2.3.4 2.3m5.4-71.3-5.6-.6m-.6 2.3.6-2.3m36 5.2 1.7-.3m5.4 2.3-5.4-2.3m-21-2.2 1.2-1.7m5.6 1.5-5.6-1.5m-49.8 72 3.9-.7m.5-2.4-.5 2.4m-11.5 2.6-1 1.9m-3.8 1.2 3.8-1.2m6.3-75.8 5.7-.7m.6 2.3-.6-2.3m-24.6 82.1 3.6-1.6m1.5-1.4-1.4 1.3m53.1-10.4.5 2.3m3.9.8-3.9-.8m.6-69.7.8-2.3m5.6.9-5.6-.9m23.3 3.5 1.6-.9m5.5 2-5.5-2m-82.5.1 5.6-1.6m1.3 1.6-1.3-1.6m66.8 77-3.7-1.3m-1.1-1.9 1.1 1.9m-52.5-3.5 3.9-.9m.6-2.4-.6 2.4m-39.6-64.6-1.9.5m-5.3 2.7 5.3-2.7m33.7-6.8 5.5-1.1m.9 2.4-.9-2.4m-37.3 7.4 5.3-2.4m1.8.2-1.8-.2m90.2 74.2 1.6 1.4m3.5 1.7-3.5-1.7v.01"/><path d="m140.125 77.35.7 2.3m3.8 1-3.8-1m-56.1 6 3.7-1.4m1.1-1.9-1.1 1.9m36.3-9.1-3.9-.1m-3.9 0h3.9m-.1-2.9.1 2.9m33.9-64.7 1.5-1.6m-6.8.2-5.5-1.2m17.7 2.6-5.4-1.6m-13.3 1.3 1-2.3m-30.9 67.5 3.9-.2m.1-2.8-.1 2.8m-48.6-62.6 5.4-2m1.7.8-1.7-.8m54.9 65-3.9-.3m-.1-2.8.1 2.8m-27 2.6-.8 2.4m-3.7 1 3.7-1m12.2-4.5 3.9-.4m.2-2.8-.2 2.8m13.6-67.1-5.4-.2m-5.5.1 5.5-.1m-.1 2.9.1-2.9m7.2 64.6.2 2.9m3.9.4-3.9-.4m-12.7-64.5-.2-2.9m-5.4.3 5.4-.3m-34.5 79.2-1.6 1.4m8-79.1 5.4-1.2m1.1 2.2-1.1-2.2m39.1.2-5.5-.4m-.2 2.9.2-2.9m-17.2 64.6-.3 2.9m-3.9.5 3.9-.5m42.8 7.4 1.2 1.9m3.6 1.5-3.6-1.5m-4.8-3.2-3.7-1.1m-.8-2.4.8 2.4m-33.9-69.4-.4-2.9m-5.5.5 5.5-.5m70.8 7.6-5.3-2.5m-1.9.2 1.9-.2m12.4 5.9-5.2-2.8m-1.9-.6 1.9.6m-100.7-5.5-1.6-1.5m-5.3 1.7 5.3-1.7m55.7 67-3.9-.7m-.3-2.8.3 2.8m-.9-64.4.5-2.9m5.4.6-5.4-.6m41.8 5.1-5.2-2.2m-1.8.8 1.8-.8m-63.1 61.9-.4 2.8m-3.8.7 3.8-.7m43-65 1.2-2.2m5.3 1.4-5.3-1.4v.01"/><path d="m105.525 11.75-.7-2.9m-5.4.8 5.4-.8m-15.3 73.5 3.7-1.2m.8-2.4-.8 2.4m67 7 1.6 1.4m-75.8-5.8-1.3 1.9m-3.5 1.6 3.5-1.6m51.2-12 .5 2.9m3.7.8-3.7-.8m6.5-66.5-5.4-.9m-.7 2.9.7-2.9m22.5 2.8 1.6-1.6m5.3 1.9-5.3-1.9m-79.3.7 5.3-1.5m1.3 2.2-1.3-2.2m14.3 64.5-.5 2.8m-3.7.9 3.7-.9m50.5 6.2-3.6-1.3m-.9-2.4.9 2.4m-85.2-67-1.9-.1m-5.2 2.6 5.2-2.6m32.9-4.1 5.3-.9m.9 2.8-.9-2.8m-36.3 5.1 5.2-2.3m1.9.8-1.9-.8m87.1 72.1 1.3 1.9m3.5 1.7-3.5-1.7m-100.7-69.2-2 .6m-5 2.9 5-2.9m18.7 74.6 3.4-2m1.7-1.5-1.7 1.5m63.5-16 .5 2.9m3.7.9-3.7-.9m-15.5-5-3.9-.2m0-3.3v3.3m-3.7.1 3.7-.1m-3.7-3.3v3.4m-3.8.2 3.8-.2m24.9-59.4 1-2.8m5.3 1.1-5.3-1.1m-56.9 73.7 3.5-1.4m38.9-9.8-3.8-.2m-34.1 7.6-1 2.4m35-13.4.1 3.4m28.7-59.9 1.4-2.1m5.3 1.6-5.3-1.6m-84.5 2.9 5.2-2m1.7 1.5-1.7-1.5m37.9 57.8-.1 3.4m-3.8.3 3.8-.3m-15 2.4-.5 2.9m-3.7 1 3.7-1m28.7-66.7-5.3-.2m-.1 3.5.1-3.5m-5.2.1 5.2-.1m11.1 62.2-3.8-.5m-.2-3.3.2 3.3m-12.3-58.2-.2-3.4m-5.2.3 5.2-.3m15.7.5-5.2-.4m-.3 3.4.3-3.4m-43.8 74.2-1.4 2m-3.4 1.7 3.4-1.7m28.4-17.8-.2 3.3m-3.8.6 3.8-.6m-14.2-59.4-1.1-2.8m-5.2 1.2 5.2-1.2m17 4.1-.4-3.4m-5.2.5 5.2-.5m44.7 73.3-3.5-1.5m-1-2.4 1 2.4m11.6 6.8 1.8 1.6m3.2 2-3.2-2m-22.1-16.1.6 2.9m3.6 1.1-3.6-1.1m-11.9-8.6.3 3.4m3.7.6-3.7-.6m46.8-57 2.1-.1m5 2.7-5-2.7m-9.1-1.6 1.9-.7m5.1 2.4-5.1-2.4m-90.1-.4-1.5-2.2m48.8 3.8.5-3.4m-54.5 1.3 5.2-1.7m54.5 1-5.2-.6m-25.7 58.5-.3 3.4m-3.7.7 3.7-.7m66.4-59-5.1-2.1m-1.9 1.5 1.9-1.5m-20 1.7 1.3-2.8m5.1 1.3-5.1-1.3m-42.1 4-.6-3.4m-5.2.7 5.2-.7m80.6 6.9 2.1.7m4.8 3-4.8-3m-93.5 56.5-.7 2.9m-3.5 1.2 3.5-1.2m69.5 11.1-3.3-1.7m-1.5-2.1 1.5 2.1m-24.6-17.9.3 3.4m3.7.8-3.7-.8m-53.3 11.6 3.4-1.5m1.1-2.5-1.1 2.5m50-68.3.8-3.4m5.1.8-5.1-.8m21.5 2 1.7-2.1m5 1.8-5-1.8m-90.4 82.5 3.1-2m1.9-1.6-1.9 1.6m25.5-17.6 3.7-.8m.3-3.4-.3 3.4m-11.7-59.5-1.3-2.8m-5.1 1.5 5.1-1.5m12.3 4-.9-3.3m-5.1.9 5.1-.9m46.4 64 .7 2.9m3.5 1.3-3.5-1.3m-82.2-63.8-2.1-.8m-4.9 2.6 4.9-2.6m53.9 54.1h3.7m3.8.1-3.8-.1m0-3.8v3.8m-7.4.2 3.7-.2m.1-3.8-.1 3.8m-65.8-48.7 4.8-2.9m2.2.1-2.2-.1m9.2-1.7 5-2.3m2 1.5-2-1.5m69 57.8.4 3.4m3.6.9-3.6-.9m19.1 11.6-3.3-1.5m-1.2-2.5 1.2 2.5m-27.2-15.3-3.7-.3m-.1-3.8.1 3.8m-49.9 21.9 3.2-1.9m1.5-2-1.5 2m69.1-75-5-1.1m-1 3.4 1-3.4m-32.3 56.6 3.7-.4m.1-3.8-.1 3.8m12.8-54.6-5.1-.1m0 3.8v-3.8m-4.9 0h4.9m30.9.9 1.4-2.8m5 1.6-5-1.6m-62 64.6-.8 2.9m-3.4 1.3 3.4-1.3m25.8-61.7-.2-3.9m-5 .3 5-.3m15.8 55.3-3.7-.4m-.1-3.8.1 3.8m-56-54.5 4.9-2m1.8 2.1-1.8-2.1m54 2.1-5-.4m-.3 3.9.3-3.9m-27.4 57-.5 3.4m-3.5 1 3.5-1m-47-54.7-2.2.6m-4.7 3.2 4.7-3.2m60.7 44.9-.1 3.8m-3.7.5 3.7-.5m1.9-51-.4-3.8m-5 .5 5-.5m-14.8 2-1.1-3.3m-5 1.2 5-1.2m40.4 56.9-3.7-.6m-48.1 13.1-1.2 2.5m-3.3 1.7 3.3-1.7m49.2-19.4.1 3.8m4.1-54.2-4.9-.6m-.5 3.8.5-3.8m15.6 61.6-3.5-1.1m-.5-3.4.5 3.4m6.9 2.3.8 3m3.3 1.4-3.3-1.4v.01"/><path d="m161.925 87.85 1.6 2m3.1 2-3.1-2m-84.6-75 4.9-1.6m1.6 2.7-1.6-2.7m22.2 52.9-.1 3.8m-3.7.7 3.7-.7m-4.7-54.2 4.9-.6m.6 3.8-.6-3.8m77.7 3.5-4.8-2.6m-2.2.7 2.2-.7m-9.1-.3 2.1-1.4m4.8 2.4-4.8-2.4m-26.3 2.9 1.2-3.3m5 1.3-5-1.3m-102.6 10-2.1 1.3m-4.6 3.4 3.5-2.6m122.1-10.3 1.8-2m4.9 2-4.9-2m-29.6 52.7.2 3.8m3.6.8-3.6-.8m55.2-48.6-4.7-3m-2.3 0h2.3m-50.8.6.7-3.8m4.9.8-4.9-.8m-44.7 61.6 3.4-1.2m.5-3.4-.5 3.4m62.8 7.7 1.2 2.5m3.2 1.8-3.2-1.8m-74.9-3.3 3.3-1.5m.8-3-.8 3m15.3-14.4-.2 3.8m-3.5.8 3.5-.8m-.2-51.1-.8-3.8m-4.9.9 4.9-.9m-9.7 2.1-1.3-3.3m-4.8 1.4 4.8-1.4m73 1.2-4.9-1.7m-1.7 2.6 1.7-2.6m-41.2 51h3.6m0-4.2v4.2m3.7.1-3.7-.1m-3.6-4.1v4.1m-3.7.2 3.7-.2m-45.5 27.8 3-2m1.7-2.1-1.7 2.1m53.5-25.4-3.7-.3m0-4.2v4.2m21.8 7.8.5 3.5m3.4 1.2-3.4-1.2m44.1-54.8 2.2.7m4.6 3.2-4.6-3.2m-83.3 43.3 3.7-.4m0-4.1v4.1m29.3 6.7-3.5-.9m-13.4-52.7-4.8-.2m18 49.1.2 3.8m-18.3-48.6.1-4.3m-4.7.1 4.7-.1m-9.5.3 4.8-.2m.1 4.2-.1-4.2m23.7 1.7.9-3.7m4.8 1-4.8-1m-73.5.6-2.2-1.3m-4.7 2.4 4.7-2.4m66.6 50.3-3.7-.4m0-4.2v4.2m-2.6-42.9.3-4.2m4.8.3-4.8-.3m-58.4-1.5 4.8-2.1m1.9 2-1.9-2m85.3 68.8-3.3-1.5m-.9-3.1.9 3.1m-100.7-62 4.7-2.7m2.3.6-2.3-.6m48.5 1.6 4.8-.5m.3 4.2-.3-4.2m-5.5 47.7 3.7-.5m-33.4 23.1 3-1.8m30.4-25.5v4.2m-29.1 18.7-1.3 2.6m77.3-70.3-4.7-1.4m-1.5 3.2 1.5-3.2m-53 52.4-.2 3.8m-3.5 1 3.5-1m-10.8 6.8 3.4-1.2m.5-3.5-.5 3.5m38.8-54.2.5-4.2m4.7.6-4.7-.6m-33.3 1.8-1-3.8m-4.8 1.2 4.8-1.2m-15.6.8-1.8-2.6m52.8 46.9.1 4.1m-57.7-49.1 4.8-1.9m56.5 51.6-3.6-.6m-85.2-42.7 4.6-3m2.3-.1-2.3.1m56.1 3-.6-4.2m-4.7.6 4.7-.6m58.2 70.7 1.7 2.2m2.9 2-2.9-2m-64.2-25 3.6-.7m.1-4.2-.1 4.2m91.6-40.6 2.2 1.4m4.4 3.5-3-2.4m-55 44.9-3.5-1m-.2-3.8.2 3.8m-62.1 12.4 3.2-1.6m.9-3-.9 3m-3.1-65.3 4.7-1.5m1.5 3.2-1.5-3.2m59.2 5 1.1-3.7m4.7 1.2-4.7-1.2m-11.1 6.2.7-4.2m4.7.7-4.7-.7m14.2 54.9.6 3.5m3.2 1.3-3.2-1.3m-11.1-10.4-3.6-.8m0-4.2v4.2m25.1 18.8 1.4 2.6m3 1.8-3-1.8m12.7-69.9-4.7-2.2m-2.1 2 2.1-2m11.6 3.5-4.7-2.5m-2.2 1.2 2.2-1.2m-56.1 39.6v4.5m-3.6.1 3.6-.1m-3.6.1 3.6-.1m3.7.1-3.7-.1m-3.6.1 3.6-.1m3.7.1-3.7-.1m3.7.1-3.7-.1m-7.3.3 3.7-.2m-3.7.2 3.7-.2m-3.7.2 3.7-.2m0-4.5v4.5m-21.6 7.7-.3 3.8m-3.4 1.1 3.4-1.1m2.1-52 4.7-.9m.8 4.2-.8-4.2m22.4 36.9v4.5m36.9-42.6 1.9-2.6m-35.1 45.5-3.7-.3m3.7.3-3.7-.3m3.7.3-3.7-.3m43.4-43.2-4.6-2m-116.6 7.4-2.3.8m-4.4 3.3 4.4-3.3m58.2 38.7-.1 4.2m-3.5.8 3.5-.8m23.1-44.3-4.6-.1m-4.5 0h4.5m0 4.5v-4.5m-11.2 39 3.7-.3m-3.7.3 3.7-.3m-3.7.3 3.7-.3m0-4.5v4.5m75-39.7-4.6-2.8m-2.3.6 2.3-.6m-67.2 8.4-.2-4.6m-4.6.2 4.6-.2m-29.5-3.3 4.6-1.3m1.3 3.7-1.3-3.7m33.8 9.2.2-4.5m4.6.3-4.6-.3m6.2 39.2-3.6-.5m3.6.5-3.6-.5m0-4.5v4.5m3.6.5-3.6-.5m-39.6 13.6-.6 3.4m-3.2 1.5 3.2-1.5m72.6 7-3-1.7m-1-3.1 1 3.1m-84.1 7.1-1.4 1.7m-1.7 1.5 1.3-1m83.4-73 1.6-3.2m4.7 1.7-4.7-1.7m-17.5 7.5.9-4.2m4.6 1-4.6-1m-27.8 7.3-.4-4.6m-4.5.5 4.5-.5m30.7 45.5-3.5-.9m-.1-4.2.1 4.2m-32.9-5.3 3.6-.5m0-4.5v4.5m-3.6.5 3.6-.5m-3.6.5 3.6-.5m39.8 12.7-3.3-1.2m-.4-3.8.4 3.8m-16.5-45.5.4-4.6m4.5.6-4.5-.6m-52.4 63.2-1.4 2.7m-2.9 1.9 2.9-1.9m59.1-26.5-3.7-.5m3.7.5-3.7-.5m.1-4.5-.1 4.5m3.7.5-3.7-.5m63.5-37-4.4-3.1m-2.4-.2 2.4.2m-41.7.5 1.3-3.7m4.6 1.4-4.6-1.4m-52.1 6.1-1-4.1m-4.5 1.1 4.5-1.1m10.5 7.2-.5-4.5m-4.5.6 4.5-.6m-8.3 40.3-.1 4.2m-3.4 1 3.4-1m-36.1-48.5 4.6-2.3m2.1 1.9-2.1-1.9m2.1 1.9 4.6-2m2 2.5-2-2.5m28.4 45.9 3.6-.7m-3.6.7 3.6-.7m-3.6.7 3.6-.7m-.1-4.5.1 4.5m46.6 13.6.6 3.4m3.2 1.5-3.2-1.5m-97.3-58.4 4.5-2.6m2.3 1.2-2.3-1.2m31.6 51.8-.3 3.8m-3.3 1.3 3.3-1.3m42.2-45.6.6-4.5m4.5.7-4.5-.7m-56.9 62.6 2.9-1.7m1.1-3.1-1.1 3.1m43.8-27.9-3.7-.1m-44.6-37.1 4.6-1.8m40 34.2v4.7m-3.6.1 3.6-.1m-38.3-35.7-1.7-3.2m-47.3 14.8 4.2-3.6m2.3-1.4-2.3 1.4m75.8 28 3.7-.2m-.1-4.8.1 4.8m7.4-4.7-.1 4.7m3.7.3-3.7-.3m11 1.3v4.5m3.5.8-3.5-.8m3.5.8-3.5-.8m3.5.8-3.5-.8m7 1.7.1 4.2m3.3 1-3.3-1m-21.7-36.4.1-4.8m4.4.1-4.4-.1m-4.3.1 4.3-.1m22.6-1.9 1.1-4.1m4.5 1.2-4.5-1.2m27.6 75.1-2.7-2.2m-1.8-2.2 1.8 2.2m-57.3-66.6 4.4-.2m.1 4.7-.1-4.7m-6.9 29.9 3.7-.3m-.1-4.8.1 4.8m-9.9-28.4-.7-4.5m-4.5.8 4.5-.8m26.9 3.7-4.4-.4m-.2 4.8.2-4.8v.01"/><path d="m82.425 20.65 4.5-1.5m1.5 3.6-1.5-3.6m-30.9 1.4-2.5-.5m-4.4 2.9 4.4-2.9m78.3 37.2-3.7-.5m.1-4.7-.1 4.7m35.3 30.3 1.5 2.6m2.8 2-2.8-2m-57.1-62 4.4-.4m.3 4.8-.3-4.8m-13.2 36.2 3.5-.8m-.1-4.5.1 4.5m-3.5.8 3.5-.8m-3.5.8 3.5-.8m99.4-33.7-4.3-3.4m-2.4-.8 2.4.8m-48.5 44.8.4 3.8m3.2 1.4-3.2-1.4m-64.1 2.1-.7 3.5m-3 1.5 3-1.5m21.3-22.3 3.7-.5m-.1-4.7.1 4.7m24.3-29-4.3-.5m-.4 4.7.4-4.7m-34.1 37-.1 4.2m-3.4 1.1 3.4-1.1m48-43.6-4.4-.9m-.8 4.5.8-4.5m-45.1 1.5-1.2-4.1m-4.4 1.2 4.4-1.2m73-1.3 2-2.5m4.5 2.1-4.5-2.1m-8.3 64.4 1 3.1m2.9 1.8-2.9-1.8m-28.6-32.8-.1 4.8m3.6.5-3.6-.5m34-37-4.5-1.9m-1.8 3.1 1.8-3.1m-18.9 45.6-3.5-.9m3.5.9-3.5-.9m.1-4.5-.1 4.5m3.5.9-3.5-.9m-35.4-34.8 4.3-.6m71.2-7.2-4.4-2.5m-66.3 14.5-.5-4.8m64.5-7.8 2.3-1.9m-53.9 28.8v4.9m3.8.1-3.8-.1m-3.7 0h3.7m-3.7-4.9v4.9m-3.7.2 3.7-.2m42.5-30.2-4.5-1.6m-1.5 3.6 1.5-3.6m-34.2 16.8v-4.9m3.8 15.1-.1 4.9m.6-19.9-4.3-.1m7.4 20.3-3.7-.3m-7.8-20h4.1m-18.4 26.4 3.6-.7m-56.9-34.5-2.5.2m59.3 29.6.1 4.7m-63.7-31.1 4.3-3.2m70.2 13.6-.1-5m-4.2.3 4.2-.3m-22.7-6.1 4.3-1.1m.9 4.5-.9-4.5m40 4.1-4.3-.7m-.6 4.7.6-4.7m-24.4 24.3 3.7-.4m-.1-4.9.1 4.9m-24.4 19.1-.4 3.9m-3.1 1.4 3.1-1.4m60.6-4.5-3.3-1.2m-20.9-32.3.2-5m4.2.3-4.2-.3m20.6 33.1.1 4.2m40.1-47.2-4.4-2.7m-2.5 1.2 2.5-1.2m-85.9 45.2 3.4-1m-3.4 1 3.4-1m-3.4 1 3.4-1m-.1-4.5.1 4.5m-28.4 29.2-1.8 2.3m90.7-12.8-3-1.7m-.7-3.5.7 3.5m-3-57-4.4-1.3m-36.4 14.8-.2-4.9m-4.2.4 4.2-.4m35.3-5.9 1.3-4m-17.2 30.3-3.7-.4m.2-4.9-.2 4.9m-53.4 35.9-1.4 2.7m-2.8 2 2.8-2m65.6-32.1-3.6-.8m.2-4.7-.2 4.7m-31.3-24.8-.6-4.7m-4.3.8 4.3-.8m29.9 4.4-4.1-.5m-.4 5 .4-5m-4.7 14.7-3.9-.1m-3.7 0h3.7m.1-5.1-.1 5.1m-11.3.6.2 4.9m-3.7.5 3.7-.5m7.3-10.5.1 5m-3.8.2 3.8-.2m7.9-9.9-4.1-.2m-4 .1 4-.1m0 5v-5m21.7-7.1 1-4.5m4.3 1.1-4.3-1.1m-26.6 16.7-.1-5m-4.1.2 4.1-.2m7.9 5.1-.1 5m3.8.3-3.8-.3m-49.8 41.1 2.9-1.9m1.1-3.1-1.1 3.1m51.2-48.9-4-.3m-.2 5 .2-5m-16.2.5-.4-4.9m-4.2.5 4.2-.5m8.6 9.3 3.9-.1m3.9.2-3.9-.2m21.7 17.8-.1 4.5m3.3 1-3.3-1m3.3 1-3.3-1m3.3 1-3.3-1m-40.2-10.5.2 4.7m-3.5.8 3.5-.8m-24.4-35.8-1.9-3.1m16.2 46.3-.2 4.2m-20.4-48.5 4.4-2m12.8 51.7 3.2-1.2m20.9-27.8.2 5m-3.8.4 3.8-.4m19 .6-.3 4.9m3.7.6-3.7-.6m-18.9-10.5 3.9-.2m85-12.8 2.3 1.5m4 3.7-4-3.7m-11.5-6-4.3-3m-2.5.5 2.5-.5m-123.2-.5 4.3-2.2m2.2 2.5-2.2-2.5m14.5 5.4-1.6-3.5m-4.4 1.7 4.4-1.7m30.6 21.3-.3-5m-4 .4 4-.4m24.8-3.6.8-4.7m4.2.9-4.2-.9m-9.7 13.5-3.9-.3m27.6 29.8.4 3.9m3.1 1.4-3.1-1.4m-20.5-28-3.8-.4m.2-5-.2 5m-44.4-23 4.4-1.4m1.3 4-1.3-4m20.7 19.6 3.9-.4m19.9-4.4.5-4.9m4.1.7-4.1-.7m-.5 4.9-4-.4m-.3 5 .3-5m-23.3 10.7.3 4.9m-3.7.7 3.7-.7m-40.7-31.8-2.4-1.8m-4.3 2.6 4.3-2.6m16 63.8 2.9-1.7m.7-3.5-.7 3.5m27.4-38.9.3 5m-3.8.5 3.8-.5m-14.3-17.3-1.1-4.4m-4.3 1.1 4.3-1.1m48.5 33.8-3.5-.9m.2-4.7-.2 4.7m-6.5-16-3.9-.4m-92.8-11.4 4.1-3.5m2.4-.9-2.4.9m64.8 10.6 4-.5m.4 5-.4-5m-16.4 28.2 3.3-1.1m-3.3 1.1 3.3-1.1m-.1-4.5.1 4.5m-3.3 1.1 3.3-1.1m4.5-30.7-.9-4.7m-4.1 1 4.1-1m5.5 8.8-.6-4.9m-4 .8 4-.8m1.1 9.9 3.9-.5m26.8 5.8-.3 4.9m16.7 18.6-3.2-1.3m-.1-4.2.1 4.2m-9.9-16.5-3.6-.8m.3-4.9-3.7-.6m.3-5-.3 5m42.5 50.8-2.5-2.3m-1.9-2.3 1.9 2.3m-6-7.1 1.5 2.7m2.6 2.1-2.6-2.1m-35.2-49.1.4-5m4 .7-4-.7m-74.4-15.8-2.5-1.2m-4.3 2.8 4.3-2.8m42.7 33.7.2 4.7m-13.1 13.4-.4 3.9m-3 1.5 3-1.5m10.1-16.3 3.4-1m37.5-15.7-3.9-.7m29.8 41.3 1.1 3.2m2.8 1.9-2.8-1.9m.3-63.8-4.2-1.8m-1.8 3.5 1.8-3.5m-57.6 27.1 3.7-.7m-.4-5 .4 5m36-13.7-4.1-.8m-.6 4.9.6-4.9m20.2-8.4-4.2-1.5m-1.5 4 1.5-4m45.8 4.6-4.1-3.3m-2.5-.3 2.5.3m-48.6 5.8 1.2-4.4m4.2 1.3-4.2-1.3m15.9-2.9 2.1-3m4.3 2-4.3-2m-24.2 13.9.9-4.6m-43.8 24.7 3.5-.8m-.3-4.9.3 4.9m44.4-22.9-4.1-1m6.5 36.6-3.3-1.2m.1-4.5-.1 4.5m3.3 1.2-3.3-1.2m3.3 1.2-3.3-1.2m-40.5-22.1-.5-5m-3.9.8 3.9-.8m-3.3 5.7 3.8-.7m71.4-20.7-4.3-2.3m-2.2 2.4 2.2-2.4m-10 64-2.8-1.7m-.8-3.6.8 3.6m-19.9-33.2-3.7-.8m.5-4.9-.5 4.9m-46.9 18.6-.1 4.2m-3.1 1.4 3.1-1.4m56.9-10.5-3.3-1m.2-4.7-.2 4.7m-41.7-20.8-.7-4.9m-4 .9 4-.9m39.5 15.2-.4 4.9m3.5.9-3.5-.9m1.6-14.8-3.9-.8m-.5 5 .5-5m-45.9-7.1 4.1-1.1m1 4.6-1-4.6m45 13.9-3.7-.7v.01"/><path d="m45.025 26.05 4.1-3.1m2.6.4-2.6-.4m127.5-.8 2.4-1.7m4.3 2.6-4.3-2.6m-88 10.7-1.3-4.4m-4.1 1.4 4.1-1.4m65.6 46.3.5 3.9m2.9 1.6-2.9-1.6m-54.4-33.4.5 5m-3.7.8 3.7-.8m-12.9 18.2 3.3-1.2m-3.3 1.2 3.3-1.2m-.2-4.5.2 4.5m-3.3 1.2 3.3-1.2m-12.4-39.7 4.1-1.7m1.6 4-1.6-4m-11.8 65.8-1.6 2.7m-2.5 2.2 2.5-2.2m74.9-57.4-3.9-1.1m-.8 4.9.8-4.9m-61.7-8.3-1.9-3.5m-4.2 1.8 4.2-1.8m23.4 21.2-.6-4.9m-3.9.9 3.9-.9m-32.7 56.2-1.9 2.3m-2.4 2.4 2.4-2.4m25.9-36.1 3.4-1.1m-.3-4.7.3 4.7m-.3-4.7 3.5-1m-.5-4.9.5 4.9m-22.7 30.5-1.2 3.2m-2.6 2 2.6-2m-45.2-51.9 3.8-3.8m2.4-1.5-2.4 1.5m64.3 12.2 3.7-.9m50.8 23.9.1 4.2m3 1.4-3-1.4m-84.8-48.3 4.2-2.1m2.1 2.9-2.1-2.9m68.4 22.7-.5 5m3.6.9-3.6-.9m5.9-13.7 1.1-4.7m4 1.2-4-1.2m-70.6 54.2 2.8-1.8m.8-3.5-.8 3.5m120.5-54.9 2.6.9m3.9 3.6-3.9-3.6m-18.6-5.9 2.6-1.1m4.1 2.9-4.1-2.9m-41.3 18.1-3.8-1m-.7 4.9.7-4.9m11.4 28.4-3.2-1.3m.1-4.5-.1 4.5m3.2 1.3-3.2-1.3m3.2 1.3-3.2-1.3m1.6-34.4 1.4-4.3m4 1.5-4-1.5m-59.8 8.3 3.9-1.1m.8 4.9-.8-4.9m47.1 15.2-.5 4.9m3.5 1-3.5-1m1.1-9.8-3.7-1m-72.6-20.6-2.3-2.4m-4.2 2.5 4.2-2.5m81 34.8-.4 4.7m3.3 1.2-3.3-1.2m-62.9 13.4-.5 3.9m-2.8 1.7 2.8-1.7m12.3-27.4 3.5-1m-.5-4.9.5 4.9m57.8-20.4 1.7-4m4.1 1.7-4.1-1.7m-119.3 4.8 3.9-3.4m2.7-.3-2.7.3m44.8 6.1 3.9-1.3m1.2 4.6-1.2-4.6m-8.1 42.7 2.9-1.5m.2-4.2-.2 4.2m7.4-31.8 3.7-1m.8 4.9-.8-4.9m70.9-14.4-4.1-1.9m-1.9 3.4 1.9-3.4m-69.7 22.2 3.7-1m71 46.5 1.6 2.8m2.4 2.2-2.4-2.2m-25.7-53.7.9-4.8m3.9 1.1-3.9-1.1m-53.7 21.1 3.4-1.1m-.5-4.9.5 4.9m73.5 35.7-2.5-2m-1.3-3.2 1.3 3.2m-105.2-65.5-2.5-1.7m-4.1 2.7 4.1-2.7m27.5 46.4 3-1.4m-.1-4.5.1 4.5m-3 1.4 3-1.4m-3 1.4 3-1.4m-.1-4.5 3.2-1.2m-.3-4.7.3 4.7m51.7-16.1-.6 4.9m3.5 1.1-3.5-1.1m18.3 30.4.8 3.6m2.6 1.9-2.6-1.9m-75.2-51.4-1.5-4.3m-4 1.6 4-1.6m88.5-3.7-4-2.2m-2.3 2.9 2.3-2.9m26.5 5.4-3.9-3.2m-2.7.4 2.7-.4m-48.9 20.5.8-4.9m3.7 1.1-3.7-1.1m16.9 40.2-2.8-1.7m-.5-3.9.5 3.9m-11.3-32.5-3.6-1.1m10.7-11.8-3.9-1.4m-1.2 4.6 1.2-4.6m-69-2-1.7-3.9m-4 1.7 4-1.7m69.6 31.1-3.3-1.2m.5-4.8-.5 4.8m-53-15.2-1-4.8m-3.8 1.3 3.8-1.3m63 33.1.1 4.2m2.9 1.6-2.9-1.6m-64-21.5 3.4-1.2m-.7-4.9.7 4.9m85.9-25.7-4-2.5m-2.5 2.3 2.5-2.3m-24.3 40.8-3.2-1.3m.4-4.7-.4 4.7m6.1 7.2-3-1.4m.1-4.5-.1 4.5m3 1.4-3-1.4m3 1.4-3-1.4m-104.5-41.1 4-3m2.7 1.1-2.7-1.1m-27.9 18.9 3.6-4m2.2-2.2-2.2 2.2m48.5-10.7-2.1-3.4m-4 2.1 4-2.1m86.2 6.4-4-1.6m-1.5 4.2 1.5-4.2m49.8 3.6 2.4 1.6m3.7 3.8-3.7-3.8m-114.2 11.3-.8-4.9m-3.7 1.2 3.7-1.2m-2.7 6.1 3.5-1.2m-24.2 46.6 2.4-2.1m1.2-3.2-1.2 3.2m-6.4 7.1 2.3-2.2m1.7-2.8-1.7 2.8m5.3-8.1 2.6-2m.9-3.5-.9 3.5m12.5-27.1 3.3-1.3m-.5-4.8.5 4.8m-53.4-26.6-2.6 1m-3.8 3.6 3.8-3.6m47.4 3.2 3.9-1.5m1.3 4.6-1.3-4.6m61.2 8.7 1.1-4.8m3.7 1.4-3.7-1.4m.7 15.8-3.4-1.2m.7-4.9-.7 4.9m-69.8 30.3 2.7-1.8m.4-3.9-.4 3.9m-9.8-53.2-2.3-2.9m-4 2.3 4-2.3m92.5 7.2 1.8-3.9m3.9 1.9-3.9-1.9m-73.3 31 .4 4.6m-3.1 1.4 3.1-1.4m-8.9 13.3 2.9-1.7m.1-4.2-.1 4.2m104.3-48-3.9-2.8m-2.7 1.6 2.7-1.6m-97.5 40.6.2 4.5m-3 1.5 3-1.5m-3 1.5 3-1.5m-3 1.5 3-1.5m117.1-36.7-3.8-3.4m-2.7-.4 2.7.4m-47.4 14.4-3.6-1.3m-.9 4.9.9-4.9m2.6 6.1-3.5-1.2m-69.6-14.6 3.8-1.7m1.6 4.2-1.6-4.2m71.1 28.5-3.2-1.3m.6-4.8-.6 4.8m-59-10.3.8 4.9m-3.4 1.3 3.4-1.3m-6.6-13.1 3.7-1.4m1.1 4.7-1.1-4.7m-40.7-10.7-2.7-.3m-3.9 3.3 3.9-3.3m120.7 2.5 2.1-3.4m4 2.2-4-2.2m-14.7 12.6 1.4-4.6m3.8 1.6-3.8-1.6m-97.4-7.1 3.9-2.6m2.5 2.2-2.5-2.2m106.4 64.3 1.3 3.2m2.3 2.1-2.3-2.1m-1.3-3.2-2.5-2m-.8-3.6.8 3.6m-12.2-27.5-.4 4.7m3 1.5-3-1.5m8.7 13.4.5 3.9m2.6 1.9-2.6-1.9m-72-38.5 1 4.9m-3.4 1.3 3.4-1.3m-4.5-3.5 3.5-1.4m81.5 51.3 1.7 2.9m-14.6-25.5-2.9-1.6m5.8 7.5-2.8-1.7m-.1-4.2-2.9-1.6m2.9 1.6-2.9-1.6m.1-4.4-.1 4.4m2.9 1.6.1 4.2m-80.4-43.2-1.9-3.9m-3.9 2 3.9-2m117.9.4-3.8-3.1m-2.8 1 2.8-1m-102.1 28 .6 4.8m-3.1 1.4 3.1-1.4m64.8-4.1-3.2-1.4m.8-4.9-.8 4.9m21.7-24.8 2.3-2.9m3.9 2.4-3.9-2.4m-22.2 18 1.2-4.7m3.6 1.5-3.6-1.5m5.2-3 1.7-4.2m3.7 1.8-3.7-1.8m-80.4 5 3.6-1.6m1.5 4.5-1.5-4.5m-26.1-7.9-2.7-1.6m-3.9 2.8 3.9-2.8m31 34.6.4 4.6m-2.9 1.5 2.9-1.5m66.1-21.2-1 4.8m3.3 1.4-3.3-1.4m4.5-3.4-3.5-1.4m-119.9-8.1-2.4 1.7m-3.5 3.9 3.5-3.9m182.3 1.9 2.2 2.2m3.3 4.1-2.6-3.3m-142.8-11.4-2.2-3.3m-3.8 2.2 3.8-2.2m10.4 45 2.8-1.6m-2.8 1.6 2.8-1.6m-.1-4.5.1 4.5m-2.8 1.6 2.8-1.6m126.4-33.4-3.6-3.7m-2.7-1.1 2.7 1.1m-128.4 44.7 2.6-1.7m-2.6 1.7-.5 4m-5.8 7.5 2.3-2v.01"/><path d="m74.425 83.05 2.5-1.8m3.3-10-.2 4.3m-5.6 7.5-1 3.7m79.9-33.2-.6 4.7m3.1 1.5-3.1-1.5m-81.6 30.5-1.3 3.3m-2.3 2.1 2.3-2.1m14.9-37.8 3.2-1.4m-.8-4.9.8 4.9m-46.8-23.5-2.7.4m-3.7 3.5 3.7-3.5m139.6-2.9 2.6-2.2m3.8 2.7-3.8-2.7m-11.1 5.9-3.8-2m-2 3.8 2-3.8m-84.5 11.5 3.5-1.6m1.3 4.7-1.3-4.7m-17.2 55.7-1.4 2.5m8-63.4 3.7-1.8m1.8 4.1-1.8-4.1m84 5-3.5-1.7m-1.6 4.5 1.6-4.5m42-3.7-3.7-3.4m-2.8.3 2.8-.3m-112.8 21.8 3.3-1.5m-1.1-4.8 1.1 4.8m68.7 11.8-.5 4.7m2.9 1.5-2.9-1.5m-72.7-19.8 3.4-1.5m-26.2-15 3.7-2.5m2.5 2.8-2.5-2.8m94.7 40.3-.1 4.5m2.7 1.7-2.7-1.7m2.7 1.7-2.7-1.7m2.7 1.7-2.7-1.7m-73.4-16.2.7 4.8m68.8-10.4-.9 4.9m3.2 1.5-3.2-1.5m-70.9 7 3-1.5m-34.9-31.8-2.8-.9m-3.7 3.2 3.7-3.2m115.8 51.8-2.5-1.8m-.2-4.2.2 4.2m5.5 7.7-2.4-1.9m-.6-4 .6 4m5.4-51.6 2.3-3.2m3.7 2.2-3.7-2.2m-16.4 16.5 1.3-4.6m3.5 1.6-3.5-1.6m13 50.5-2.3-2m-.9-3.7.9 3.7m5.8 7.6-2.2-2.3m-1.3-3.3 1.3 3.3m19.9-64.3-3.7-2.9m-2.8 1.5 2.8-1.5m-29.7 24.4-3.3-1.6m1.2-4.8-1.2 4.8m-85.8-17 3.6-2.1m2.1 3.7-2.1-3.7m86.7 15.9-3.3-1.6m-75.4 23 2.9-1.7m-.5-4.6.5 4.6m-1.7-25.1-1.6-4.5m-3.5 1.8 3.5-1.8m82.2.9 1.9-4.1m3.6 1.9-3.6-1.9m12.7 67.7-1.5-1.8m-1.7-2.9 1.7 2.9m-93.2-42.4 3-1.6m-.9-4.8.9 4.8m-31.3-25.5 3.7-2.7m2.7 2.1-2.7-2.1m101.6 35.3-2.9-1.6m.7-4.7-.7 4.7m-78.2 13.3 2.6-1.8m-2.6 1.8 2.6-1.8m-.2-4.4.2 4.4m-2.6 1.8 2.6-1.8m-5.3 7.9 2.5-1.9m.2-4.2-.2 4.2m137.8-35.3-3.3-4m-2.5-1.7 2.5 1.7m-183.3.2 3.4-3.8m2.7-1.1-2.7 1.1m50.6 10.3-1.4-4.6m-3.4 1.7 3.4-1.7m-60.6 6.3 3.2-4.1m2.3-2.3-2.3 2.3m151.7-12.7 2.5-2.7m3.7 2.6-3.7-2.6m-103.1 52.3-.5 3.9m-2.4 2 2.4-2m132.2-47.9-3.5-3.7m-2.8-.4 2.8.4m-120.5 13.2 1.2 4.8m-3.2 1.6 3.2-1.6m-4.5-3.1 3.3-1.7m-10.6 40.4-.9 3.7m-2.2 2.1 2.2-2.1m89.9-21.1-2.8-1.7m.5-4.6-.5 4.6m-114.2-36.4-2.9-.2m-3.5 3.4 3.5-3.4m27.3 2.3-2.4-3.2m-3.6 2.4 3.6-2.4m94.2 12.4 1.6-4.4m3.5 1.9-3.5-1.9m-92.9 54.4-1.4 3.3m-2 2.3 2-2.3m99.8-59.9 2.2-3.7m3.5 2.2-3.5-2.2m-12 19.7-1 4.8m3 1.6-3-1.6m-80.4-17.7-2-4.1m-3.4 2.1 3.4-2.1m5.5 29 2.8-1.7m-.7-4.7.7 4.7m115-29.4-3.6-3.2m-2.9.8 2.9-.8m-30.5 46-2.5-1.8m2.5 1.8-2.5-1.8m.2-4.5-.2 4.5m2.5 1.8-2.5-1.8m-107.4-43.4-2.9-1.5m-3.5 3.1 3.5-3.1m113 15.4-3.3-1.8m-1.5 4.6 1.5-4.6m-94.7 55.6-1.8 3m-.4.6.4-.6m99.6-25.5.2 4.2m2.4 1.9-2.4-1.9m-3-26.3-3-1.6m1.2-4.8-1.2 4.8m4.4-3-3.2-1.8m10 40.7-2.2-2.1m-.6-4 .6 4m15.2-54.6 2.7-2.1m3.6 2.8-3.6-2.8m-107 41.2 2.6-1.7m-.4-4.6.4 4.6m-2.2-25.1-1.7-4.4m-3.4 2 3.4-2m2.7 20.1 2.9-1.6m-1.1-4.8 1.1 4.8m87 30.3 1 3.6m2.1 2.2-2.1-2.2m-113.4-59 3.5-2.6m2.6 2.7-2.6-2.7m99.7 28.5-.8 4.7m2.8 1.7-2.8-1.7m20.2-29.3-3.4-2.5m-2.5 3.2 2.5-3.2m-4.8 6.8-3.4-2.1m-2 4.1 2-4.1m-92.2 40.6 2.5-1.8m-2.5 1.8 2.5-1.8m-.2-4.5.2 4.5m-2.5 1.8 2.5-1.8m-12.6-39.1 3.4-2.3m2.3 3.7-2.3-3.7m103.4 60.3 1.4 3.4m1.9 2.3-1.9-2.3m-93.9-49-1.5-4.6m-3.2 1.9 3.2-1.9m-.1 11 2.9-1.7m-1.3-4.7 1.3 4.7m-8 30 2.3-1.9m.2-4.3-.2 4.3m131.7-44 2.8 1.1m3.2 3.9-3.2-3.9m-133.1 11.9 3-1.8m-47.9-9.4 3.3-3.7m2.9-.5-2.9.5m-11.8 10.8 3.2-4.1m2.5-1.8-2.5 1.8m135.4 23.1-.5 4.6m2.5 1.8-2.5-1.8m36.4-36.5 2.9-.1m3.4 3.5-3.4-3.5m-130.4 56.1 2.1-2.1m.6-4-.6 4m88.5-33.2-1 4.8m2.8 1.7-2.8-1.7m61-8.1-3-4.3m-2.3-2.3 2.3 2.3m-170.5-13.9-3-.8m-3.4 3.3 3.4-3.3m32.9 34.4 2.7-1.7m-.8-4.8.8 4.8m88.9-21.9-3.2-2m-1.8 4.3 1.8-4.3m29-6.5-3.4-3.1m-2.9 1.4 2.9-1.4m-121 58.4-1 3.7m-2 2.2 2-2.2m96.8-15-2.4-1.9m2.4 1.9-2.4-1.9m2.4 1.9-2.4-1.9m.2-4.5-.2 4.5m-107-43.2-2.9-2m-3.4 2.9 3.4-2.9m19.3 10.6-2-4m-3.3 2.1 3.3-2.1m92.7 18.3-2.9-1.8m1.4-4.6-1.4 4.6m24.5-19.7-3.3-2.7m-2.8 2.6 2.8-2.6m-15.1 15.1-3.1-1.9m-1.6 4.6 1.6-4.6m12.8-7.5-3.3-2.4m-2.3 3.6 2.3-3.6m-113.9.6 3.3-2.5m2.6 3.1-2.6-3.1m4.5 62.2-1.4 3.4m-1.8 2.4 1.8-2.4m99.4-47.4-3-1.8m3.8 28.6.2 4.2m2.2 2.1-2.2-2.1m-91-9.6 2.5-1.9m-.5-4.6.5 4.6m-1.4-9.2 2.8-1.9m-1.1-4.7 1.1 4.7m85.3 7.5-2.6-1.9m.8-4.7-.8 4.7m9.3 25.2-2.1-2.1m-.6-4 .6 4m-94.1-42.5-1.9-4.3m-3.1 2 3.1-2v.01"/><path d="m72.825 76.85 2.3-2m-2.3 2 2.3-2m-.2-4.4.2 4.4m-2.3 2 2.3-2m95.7 13.4 1 3.7m1.8 2.3-1.8-2.3m-97-37.3 2.9-1.9m-1.4-4.6 1.4 4.6m96.1-14.1-3.1-2.3m-2.2 4 2.2-4m-94.4 11.8-1.7-4.5m-3 2 3-2m-1.2 6.4 2.9-1.9m-35.7-15.3-3-.1m172.1 6.1-3.1-3.7m-2.9-.6 2.9.6m-172.2 1.2 3.2-3.6m128.3 38.7-2.4-2m.6-4.5-.6 4.5m30.8-37.6 3.1-.7m3.2 3.4-3.2-3.4m-124.6 45.7-.2 4.2m-2.1 2.1 2.1-2.1m-41.2-44.1-2.8 1.2m-3 4 3-4m38.8-.7-2.4-3.5m-3.2 2.4 3.2-2.4m-21.3-.5 3.3-3.1m3 1.3-3-1.3m117.9 29.9-2.6-1.9m1.1-4.7-1.1 4.7m11.3 35.9 1.5 3.4m9.9-65.5 3-2m3.2 3-3.2-3m-5.8 4.5-3.3-2.6m-2.6 3.1 2.6-3.1m-102.9 27.3.9 4.6m-2.5 1.9 2.5-1.9m-17.8-30.6-2.8-2.6m-3.3 2.8 3.3-2.8m156.3 9.4 2.6 1.8m2.9 4.1-2.9-4.1m-144.7 41.2-.6 4m-2 2.2 2-2.2m96.7-42.6 1.9-4.2m-150.7 10.3 2.8-4.3m151-3.9-3.1-2.1m-145.6 3.7-2.3 2.3m147.3 31.5-2.2-2m2.2 2-2.2-2m.2-4.4-.2 4.4m2.2 2-2.2-2m.5-20.2-2.8-2m1.5-4.6-1.5 4.6m6.1-7-2.9-2.1m-1.7 4.5 1.7-4.5m-101.4 50.8 1.7-2.3m1-3.7-1 3.7m157.6-38.4-1.9-3.2m-2.1-2.9 2.1 2.9m-54.9-.4-2.8-2m-95.3-7.7-2.2-3.9m-3.1 2.3 3.1-2.3m7 28.4.5 4.6m-2.3 2 2.3-2m-1.5-9.2 2.6-1.9m-1.2-4.7 1.2 4.7m94.1 24.9-2-2.1m-.2-4.3.2 4.3m-1.6-15.3-2.4-1.9m.8-4.7-.8 4.7m15.3-27.4-3.1-2.4m-2.5 3.5 2.5-3.5m-113.2 64.6.6-.9m1.5-3.5-1.2 2.8m-8.1-62.2 3.2-2.6m2.7 3-2.7-3m111 50.9.7 4m1.8 2.2-1.8-2.2m-99.2-42.6-2-4.3m-2.9 2.2 2.9-2.2m112.6-6.7 2.8-2.5m3.2 2.8-3.2-2.8m-112.8 24.5 2.6-2m-1.4-4.6 1.4 4.6m-2.2 17.8.2 4.4m-2.1 2 2.1-2m-2.1 2 2.1-2m-2.1 2 2.1-2m-19.8-43.3-3-1.9m-3.1 3 3.1-3m147.4 3.5-3.1-3.3m-3.1 1.3 3.1-1.3m-150.6 1.6-3.1-.6m-3 3.4 3-3.4m166.1 5.3-3-3.6m-3.1 0h3.1m-134.9 13.2 2.8-2.1m1.8 4.4-1.8-4.4m-1 6.4 2.8-2m-44.9-9.2 2.9-3.9m3-.6-3 .6m136.7 36.5-2.2-2m.6-4.6-.6 4.6m6.7 19 1 3.8m1.7 2.3-1.7-2.3m-7.4-38.6-1.3 4.6m2.5 2-2.5-2m50.5-16.1-2.8-4m-2.9-1.3 2.9 1.3m-35.8.8-3-2.3m-2.2 3.8 2.2-3.8m-100.4 22.6 1 4.6m-2.4 2 2.4-2m-3.7 13-.2 4.3m-1.9 2.1 1.9-2.1m-44.9-41-2.7 1.9m-2.7 4.2 2.7-4.2m35.9-5.2 3-2.5m2.5 3.4-2.5-3.4m113.5 60.2 1.4 3.2m-9-48.7-1.5 4.6m2.5 2-2.5-2m-97.6 29.6-.7 4.1m-1.7 2.2 1.7-2.2m150.2-43.3 2.4 2.5m-50.6 31.4-2-2.1m55.2-25-2.6-4.3m-52.4 24.9-.2 4.4m2 2.1-2-2.1m2 2.1-2-2.1m6.5-33.1-2.8-2.3m-2.1 4.2 2.1-4.2m13.6-5.1-3-2.7m-2.8 2.9 2.8-2.9m-12.7 12-1.8 4.4m2.6 2.1-2.6-2.1m4.5-2.2-2.7-2.2m-99 27.8 2.1-2m-.6-4.6.6 4.6m-.4-15.8 1.2 4.6m-2.3 2 2.3-2m-23.4-24.8 3-2.9m2.9 2.4-2.9-2.4m-35.2 17.1-2.1 3m-2.4 4.4 2.4-4.4m153 15.2-2.2-2m.9-4.6-.9 4.6m-100.3 24.7-1 3.8m-1.6 2.4 1.6-2.4m129-59.1-3-3.1m-3 1.8 3-1.8m-19.2 53.2-1.9-2.1m-.2-4.3.2 4.3m-103.4-40.7-2.4-3.8m-2.8 2.5 2.8-2.5m-23.5-3 2.9-3.3m3.2 1.2-3.2-1.2m153.7 1.7 3.2-.6m2.9 3.5-2.9-3.5m-130 17.5 1.6 4.6m-2.4 2 2.4-2m-40.6-16.6 2.8-3.7m3.2-.1-3.2.1m34.4 44.7 1.9-2.2m-1.9 2.2 1.9-2.2m-1.9 2.2 1.9-2.2m-.2-4.4.2 4.4m101.3 7.5.6 4.1m1.6 2.3-1.6-2.3m9.7-50.3-2.9-2.6m-2.6 3.4 2.6-3.4m-115.5 8.4 2.8-2.4m2.1 4.2-2.1-4.2m140-5.4 3 .7m2.8 3.9-2.8-3.9m-140.9 8.9 1.8 4.3m-2.5 2.2 2.5-2.2m-4.4-2.1 2.6-2.2m99.9 9.9-1.3 4.6m2.3 2.1-2.3-2.1m1.3 6.6-.6 4.6m2 2.1-2-2.1m-145.2-27.2 2.7-4.1m2.9-1.3-2.9 1.3m44.3 27.8 2.1-2.1m-.9-4.6.9 4.6m-13.2-29-2.9-2.9m-2.8 2.8 2.8-2.8m11 51.6 1.7-2.3m.2-4.2-.2 4.2m108.1 13.7-1.4-2.4m-1.1-3.8 1.1 3.8m45.4-46.2-2.6-4.3m-2.7-1.9 2.7 1.9m-27.1-8.1-2.8-3m-3 2.4 3-2.4m-8.7 8.5-2.7-2.5m-2.4 3.8 2.4-3.8m-5.8 18.8-2.3-2.1m1.6-4.5-1.6 4.5m-124.6-19.8 2.8-3.2m3.1 1.8-3.1-1.8m124.8 47.5-1.8-2.2m1.8 2.2-1.8-2.2m1.8 2.2-1.8-2.2m.2-4.4-.2 4.4m-149.7-31.7-2.4 2.4m-2.4 4.4 2.4-4.4m46.9 43.2 1.5-2.3m.7-4-.7 4m106-42.7 2.2-4.1m2.6 2.4-2.6-2.4m19.8-8.5 3.2-1.1m2.8 3.3-2.8-3.3m-24.7 20.2-2.4-2.2m1.9-4.3-1.9 4.3m-100.5 5.5 1.3 4.6m-2.2 2.1 2.2-2.1m-1.2 6.7.6 4.5m-1.9 2.2 1.9-2.2m-14.4-32.9 2.7-2.7m2.7 3.4-2.7-3.4m115.9 12.3-2.5-2.3m-2.5 15.5-1 4.5m2.1 2.2-2.1-2.2m-133.9-29 2.8-3.6m3.2.5-3.2-.5m189.8 24.1-2.2-4.5m-2.1-3 1.7 2.5m-51.2 33.3-1.6-2.3m-.3-4.2.3 4.2m37.4-44.4-2.7-3.8m-3.2-.1 3.2.1m-142 55.7-1.1 3.9m-.8 1.5.8-1.5m118.7-57.6 2.9-2.8m2.7 2.8-2.7-2.8m-117.7 23.5 2.3-2.2m-1.7-4.4 1.7 4.4m-5.9-12.7-2.4-3.7m-2.7 2.5 2.7-2.5m-29.9-2.2-3.1.8m-2.6 3.9 2.6-3.9m40.1 35.8.2 4.4m-1.7 2.2 1.7-2.2m-1.7 2.2 1.7-2.2m-1.7 2.2 1.7-2.2m-59.3-14.9 2-4.7m1.8-3.4-1.8 3.4m35.8-21.9 2.7-3.1m3.1 2.3-3.1-2.3m123.6 52.2.6 4.1m1.4 2.3-1.4-2.3m-3.2-33-1.3 4.6m2.1 2.1-2.1-2.1v.01"/><path d="m212.525 42.75 2.9 1.4m2.5 4.1-2.5-4.1m-149.6 12.3 2.3-2.2m-1.9-4.3 1.9 4.3m-1.9-4.3-2.3-4m-2.5 2.4 2.5-2.4m108.1 31.8-1.9-2.2m.7-4.5-.7 4.5m-102.2-3.4 2-2.2m-1-4.6 1 4.6m-6.1-17.7 2.4-2.3m130.7-10.5-2.7-3.2m-3.2 1.7 3.2-1.7m-14.7 7.2 2.8-3.3m2.6 2.8-2.6-2.8m-164.4 12.3 2.3-4.2m2.7-2-2.7 2m46.9 35-.2 4.3m-1.5 2.3 1.5-2.3m-22.8-49.7-3.3-1.1m-2.6 3.5 2.6-3.5m134.8 58.3 1.1 3.9m.2.4-.2-.4m-3.5-37-2.2-2.2m1.7-4.4-1.7 4.4m2.3 24.6-1.6-2.2m1.6 2.2-1.6-2.2m1.6 2.2-1.6-2.2m.3-4.4-.3 4.4m-121.2-40.5 2.6-2.9m3 2.8-3-2.8m147.1-.3 3.3-.4m2.6 3.6-2.6-3.6m-21.5 8-2.5-2.6m-2.5 3.7 2.5-3.7m45.8 13.9-2.2-4.5m-2.4-2.5 2.4 2.5m-155.6 8 1.4 4.5m-2 2.2 2-2.2m-2 13.5 1.7-2.2m-.7-4.5.7 4.5m-3.2 13.2-.7 4m-1.3 2.4 1.3-2.4m110-42.7-2 4.2m2.2 2.3-2.2-2.3m-.9 11.1-1 4.6m1.8 2.2-1.8-2.2m3.9-19.9 2.3-4m2.4 2.5-2.4-2.5m-142.2-7.3-3.2.2m-2.5 3.8 2.5-3.8m145.4 13.4-2.3-2.3m13.2-11 3.1-2.2m2.6 3.1-2.6-3.1m-175.6 17.1-2.1 3m-2 4.6 2-4.6m160 26.3.3 4.3m1.3 2.3-1.3-2.3m35.8-46.7 3.1.8m2.4 4-2.4-4m-153.7 2-2.7-3.2m-2.5 2.8 2.5-2.8m9.7 14.9 1.7 4.4m-2 2.3 2-2.3m-20.2-21.3-3.2-1.7m-2.6 3.3 2.6-3.3m19.3 58.4-.8 2.8m3-13.5 1.5-2.3m-.2-4.4.2 4.4m-1.5 2.3 1.5-2.3m-1.5 2.3 1.5-2.3m-46.4-32.9 2.2-4.1m3-1.5-3 1.5m208.1 22.3-1.5-4m-2.1-4.2 1.8 3.5m-55.6 4.9-1.8-2.3m1.4-4.5-1.4 4.5m-115.3-19 2.3-2.7m2.6 3.6-2.6-3.6m113.8 28.5-.6 4.5m1.6 2.2-1.6-2.2m30.7-35.8-2.5-3.5m-3.3 1 3.3-1m-136.5 20.4 2.1-2.4m-2-4.2 2 4.2m.4 17.9 1.7-2.2m-1-4.6 1 4.6m122.4-29-2.4-3m-3 2.8 3-2.8m-13 50.8.7 4.1m1.2 2.4-1.2-2.4m-111.8-42.8-2.4-3.9m-2.2 2.5 2.2-2.5m.2 6.4 2.2-2.5m154.1-4 2.8 2.1m2.1 4.3-2.1-4.3m-182.5-10.1-3.4-.4m-2.4 3.7 2.4-3.7m29.3 52.3 1.3-2.3m.2-4.3-.2 4.3m-14.9-48.2-3.2-2.1m-2.4 3.1 2.4-3.1m127.8 24.8-1.9-2.4m1.7-4.3-1.7 4.3m14-16.2-2.3-2.8m-2.9 3.1 2.9-3.1m-10.2 43.7-1.4-2.3m1.4 2.3-1.4-2.3m1.4 2.3-1.4-2.3m.3-4.4-.3 4.4m38.4-38.5-2.3-3.9m-3.3-.3 3.3.3m-196 17.6 2-4.5m2.5-2.6-2.5 2.6m50.1 8.1 1.4 4.4m-1.7 2.3 1.7-2.3m-1.5 13.6 1.5-2.3m-.7-4.5.7 4.5m106.7-10.1-1 4.5m1.6 2.3-1.6-2.3m4.4-19.8-2.1 4.2m2 2.4-2-2.4m18.7-16.6 3.3-1.6m2.4 3.4-2.4-3.4m-12.6 9.3-2.3-2.7m-2.6 3.6 2.6-3.6m-117.9 46.1-.7 4.1m-1 2.4 1-2.4m-39.7-47.4 2.2-4.1m3.2-.9-3.2.9m153.2 11.2-2.1-2.5m2.4-3.8-2.4 3.8m4.5-1.2-2.1-2.6m-131.2-5 2.3-3m3.1 2.7-3.1-2.7m178.7 23.3-1.8-4.6m-2.1-3 2.1 3m-52.7 26.3.2 4.3m1.2 2.4-1.2-2.4m-139.1-47.2 2.4-3.5m3.3.9-3.3-.9m25.5 25.2 1.8-2.3m-1.8-4.3 1.8 4.3m154.5-10.6-2.1-4.3m-3-1.5 3 1.5m-153.6 39.6 1.3-2.3m-.2-4.4.2 4.4m-1.3 2.3 1.3-2.3m-1.3 2.3 1.3-2.3m-14.2-38.4 2.2-2.8m2.9 3.1-2.9-3.1m121.7 26.7-1.7-2.3m1.5-4.4-1.5 4.4m16.7-25.6 3.3-2.1m2.2 3.2-2.2-3.2m-19.4 34.5-.6 4.4m1.3 2.3-1.3-2.3m34.7-34.6-2.2-3.7m-3.4.3 3.4-.3m-198.2 29.2 1.6-4.7m1.8-3.5-1.8 3.5m55.2 10.5 1.5-2.3m-1-4.5 1 4.5v.01"/><path d="m61.625 54.75 2.1 4.1m-1.9 2.4 1.9-2.4m112.4 34.5.7 4.1m-156.1-47.1-2.8 2.1m-1.9 4.4 1.9-4.4m41.3-1.6-2.7-3.4m-2.1 2.7 2.1-2.7m3.1 9.8 2-2.5m-2.4-3.9 2.4 3.9m-4.5-1.2 2.1-2.7m-32.2-3.1 2.1-3.9m3.3-.3-3.3.3m35.2 44-.2 4.3m-1.1 2.4 1.1-2.4m-24.8-47.6 2.2-3.4m3.4 1.5-3.4-1.5m135.3 25.6-1.7-2.4m1.8-4.3-1.8 4.3m17.4-18.1-2.2-3.1m-3.1 2.6 3.1-2.6m43.5 34-1.4-4.8m-1.4-3.8 1.4 3.8m-5.4-10.5-1.7-4.5m-2.5-2.7 2.5 2.7m-50.4 24.9-.2 4.4m1.2 2.4-1.2-2.4m1.2 2.4-1.2-2.4m1.2 2.4-1.2-2.4m-111.1-14.4 1.6-2.4m-1.5-4.4 1.5 4.4m146.5-24 3.2.9m2 4.1-2-4.1m-150.2 29.9.7 4.5m-1.3 2.3 1.3-2.3m110.2-3.3-1.4-2.3m1.1-4.5-1.1 4.5m30.6-30-2.1-3.6m-3.4.9 3.4-.9m-23.6 14-2.2 4.1m1.8 2.5-1.8-2.5m12.4-11.4-2.1-2.9m-2.9 3 2.9-3m-124.2 48.8-.5 3.2m-14.3-53.1-3.3-2m-2.1 3.2 2.1-3.2m-31.5 16.9-2.1 3.1m-1.6 4.7 1.6-4.7m170.2-10.4-2.4 3.7m1.8 2.6-1.8-2.6m7.1-4.4-1.9-2.8m-2.8 3.5 2.8-3.5m-165.5 5.9 1.9-4.3m3-1.5-3 1.5m155.2 38.7.2 4.3m.9 2.4-.9-2.4m7.3-38.5-1.9-2.6m-151.1-5 2-3.7m3.4.2-3.4-.2m29.7 24.4 1.6-2.5m-1.9-4.2 1.9 4.2m-.4 24.8 1-2.4m-.2-4.4.2 4.4m-1 2.4 1-2.4m-1 2.4 1-2.4m112.5-21.1-1.5 4.3m1.4 2.4-1.4-2.4m-123.9-23.9-3.2-2.5m-2 3.1 2-3.1m153.1 1.6-2-3.4m-3.5 1.4 3.5-1.4m-23.7 35-.7 4.4m1.2 2.4-1.2-2.4m-111.3-10 1.1 4.4m167.7-3.4-1.4-4.7m-167.6 10.5 1.3-2.4m164.5-11.7 1.8 3.6m-11-16 2.8 2.1m1.7 4.5-1.7-4.5m-14.5-9.3 3.4.5m1.9 3.9-1.9-3.9m-152.1 11.4 2.2 4m-1.6 2.5 1.6-2.5m115.2 34.5.5 2.8m-128.1-48.4 2-3m3 3-3-3m6.6 12.7 1.6-2.6m-2.5-3.7 2.5 3.7m3.7 33-.3 4.3m-.8 2.4.8-2.4m-23.7-50-3.5-.8m-1.9 3.6 1.9-3.6m16.7 9.2 1.9-2.8m2.7 3.4-2.7-3.4m-38.4 6.7-2.6 2.7m-1.5 4.6 1.5-4.6m164.8 9.6-1.4-2.4m-121.4-10.5 1.7-2.7m121.6 9-1.9 4.2m21-19.2-2-3.3m-3.3 2 3.3-2m-173.9 8.7 1.8-4.1m3.3-1.1-3.3 1.1m-18.3 30.7 1.1-4.8m1.4-3.9-1.4 3.9m169.6 9.9-.2 4.4m.9 2.4-.9-2.4m.9 2.4-.9-2.4m.9 2.4-.9-2.4m-113.6-14.4 1.3-2.4m-1.5-4.3 1.5 4.3m-.6 13.6 1.1-2.4m-.7-4.4.7 4.4m112.7-3.2-1.2-2.4m1.1-4.4-1.1 4.4m34.6-28.7-1.9-3.8m-3.5.2 3.5-.2m-27.4 13.2-2.2 4m1.5 2.5-1.5-2.5m10.6-13.9 3.2-2.4m1.9 3.1-1.9-3.1m29.1 10.6-1.6-4.3m-3.1-1.7 3.1 1.7m10.6 17.1-1.4-4.7m-2.2-3.1 2.2 3.1m-191.8-16.9 1.9-3.5m3.5 1.3-3.5-1.3m194.5 32.6.9 4.1m.7 3.9-.7-3.9m-57.9 10.2.2 4.3m.7 2.5-.7-2.5m6.4-40.9-2.5 3.7m1.6 2.6-1.6-2.6m10.2-6.9-1.8-3m-3.1 2.9 3.1-2.9m-129.1 15.1 1.9 4.2m-1.3 2.5 1.3-2.5m.4 24.7.8-2.4m-32.9-43-3.4.5m-1.8 4 1.8-4m35.5 44.9.8-2.4m-.3-4.4.3 4.4m-.8 2.4.8-2.4m121.8-32.6-1.7-2.8m2.8-3.3-2.8 3.3m4.5-.4-1.7-2.9m-167.4 3.1-2.8 2.2m-1.5 4.5 1.5-4.5m161.9 19.1-1.2-2.5m1.5-4.3-1.5 4.3m.3 13.6-.9-2.4m.7-4.4-.7 4.4m-166.4-17.3-1.8 3.5m54.5 10.6 1-2.4m-1.1-4.4 1.1 4.4m-56.6-3.4 1.1-4.8m33.1-21.6 1.8-3.4m3.4 1.9-3.4-1.9m158.5.4 3.5-.7m1.8 3.7-1.8-3.7m-146.8 14.3 2.2 3.9m-1.4 2.6 1.4-2.6m153.4-14 3.3 1.1m1.6 4.2-1.6-4.2m-167.5-.7-3.2-2.4m-1.7 3.2 1.7-3.2m178.3 11.4 2.5 2.7m1.4 4.6-1.4-4.6m-164.5 30.8-.2 2.8m-5.8-32.9 1.5-2.7m-2.6-3.6 2.6 3.6m121.5 11.8-1.3-2.5m2-4.1-2 4.1m-149.5-18 1.7-3.9m3.5.1-3.5-.1m204.3 34.8-.9-4.9m-1.4-3.9 1.4 3.9m-56.3 16.8-.7-2.5m.2-4.4-.2 4.4m.7 2.5-.7-2.5m.7 2.5-.7-2.5m26.2-41.7-1.7-3.5m-3.5 1.3 3.5-1.3m-148.8 6.7-3.1-2.8m-1.6 3 1.6-3m3.1 2.8 2.9 3.3m-1.5 2.8 1.5-2.8m7 25.2.6 4.4m-.8 2.5.8-2.5m-1.8-8.7 1.1-2.5m-1.5-4.2 1.5 4.2m-11.4-18.8 1.6-2.9m125.4 23-1.1 4.3m.9 2.5-.9-2.5m-154.9-27.3-3.1 1.7m-1.5 4.3 1.5-4.3m-10.2 17.4 1.1-4.7m2.2-3.2-2.2 3.2m171.7.3-1.2-2.6m2.3-3.9-2.3 3.9m19.2-14.2-1.6-3.3m-3.4 1.8 3.4-1.8m17.4 6.2-1.6-4m-3.4-.6 3.4.6m-209.9 38.9.7-4.9m1-4.2-1 4.2m27.9-32.7 1.6-3.7m3.5.7-3.5-.7m143.6 46.6.2 2.7m43.9-39.8 2.9 2.3m1.3 4.4-1.3-4.4m-164.9 13.8 1.2-2.5m-2-4.1 2 4.1m124.3-12.8-2.6 3.5m1.3 2.7-1.3-2.7m-120.3 27.2.3 4.3m-.6 2.5.6-2.5m-.6 2.5.6-2.5m-.6 2.5.6-2.5m128.6-41 3.3-2.3m1.5 3.2-1.5-3.2m-16.7 33.4-.7 4.3m.7 2.5-.7-2.5m1.9-8.6-1-2.5m1.6-4.3-1.6 4.3m55.4 2.1-.9-4.8m-1.8-3.6 1.8 3.6m-171.2 3.9 1.2 4.3m-.9 2.5.9-2.5m124-21-1.3-2.8m2.8-3.2-2.8 3.2m7.5-2.9-1.5-3.1m-3.2 2.8 3.2-2.8m-165.9.1-3.3 1.2m-1.4 4.2 1.4-4.2m167.5 4.4-1.5-2.9m-146.9-5.2-3.6-1.2m-1.5 3.5 1.5-3.5m174.3 5-1.5-3.9m-3.6.1 3.6-.1m-152.5 19.8 1.1-2.6m-2.3-3.8 2.3 3.8m-44.3-5-2.6 2.8m-1.1 4.6 1.1-4.6m50 31-.2 2.9m-54.9-22.4-1.4 3.9m-.7 4.9.7-4.9m39.1-28.6-3.5-1.7m-1.5 3.3 1.5-3.3m140.4 18.4-1.9 4m1 2.6-1-2.6m-1.8 17.9-.2 4.4m.5 2.4-.5-2.4m.5 2.4-.5-2.4m.5 2.4-.5-2.4m45.4-32.8-1.3-4.3m-3.1-1.8 3.1 1.8v.01"/><path d="m55.325 65.25 1.2-2.7m-2.6-3.5 2.6 3.5m5.1 28.2.6-2.4m-.7-4.4.7 4.4m-2.6-15.4 1.6 4.2m-.8 2.5.8-2.5m117.3 8-.8-2.4m1.2-4.3-1.2 4.3m-153.9-26.9 1.4-4.1m3.5-.6-3.5.6m177.8-2 3.6-.5m1.5 3.7-1.5-3.7m-163.6 4.9 1.5-3.2m3.3 2.2-3.3-2.2m187 23.5-.9-4.8m-2.2-3.2 2.2 3.2m-179.7-13.8 3 3.2m-1.3 2.8 1.3-2.8m-3-3.2-3.1-2.7m-1.4 3.1 1.4-3.1m1.9 5.7 1.2-3m132.9 8-2.4 3.8m1.1 2.6-1.1-2.6m54.7 23.5-.5-5m-.9-4.1.8 3.4m-222.1-19.6 1.1-4.5m2.8-2.4-2.8 2.4m189.9-8-1.4-3.6m-3.6 1.1 3.6-1.1m-141.4 41 .3 4.4m-.4 2.3.4-2.3m-.3 2.2.3-2.2m-.4 2.3.4-2.3m-3.1-19.6.8-2.6m-1.9-4 1.9 4m160.1-13.7-1.2-4.2m-3.3-1.3 3.3 1.3m-191.1 0 1.3-3.9m3.6-.1-3.6.1m149.5 40.9-.5-2.5m-171.6-9 .7-4.9m171.7 9.5-.8 4.4m-169.1-17.5-1.8 3.6m178-9-1-2.8m2.6-3.4-2.6 3.4m-4.2 17.1-.7-2.5m1.6-4.2-1.6 4.2m-118.5 1.2 1.1 4.3m-.6 2.5.6-2.5m139.3-29.6-1.4-3.5m-3.5 1.7 3.5-1.7m29.8 20.2-.8-4.6m-2.6-2.9 2.6 2.9m-40.9-3.2-1.1-2.8m3-3.1-3 3.1m-183.4 37.5.2-5m.5-4.3-.5 4.3m194-37.1-1.3-3.3m-3.3 2.2 3.3-2.2m-140.6 12.7 2.4 3.7m-.9 2.7.9-2.7m134.9-14.2-3.2 2.6m1.1 3-1.1-3m4.4.5-1.2-3.1m-161.6.1 1.3-3.8m3.6.5-3.6-.5m-11.8 6.1-3.2 1.8m-1 4.4 1-4.4m194.4-5.9 3.5.7m1.1 4.1-1.1-4.1m18.1 24.3 1.4 4m.5 4.9-.5-4.9m-56.6 15.7-.1-1.4m.1 1.4-.1-1.4m.2-4.3-.2 4.3m3.2-19.5-.7-2.6m2-4-2 4m-119.6 12.2.7 4.3m-.3 2.5.3-2.5m-1.8-8.5.6-2.6m-1.6-4.1 1.6 4.1m118.5 8-.4-2.5m1.1-4.2-1.1 4.2m-124.1-17.1.9-2.8m-2.7-3.4 2.7 3.4m-47.4 11.6.7-4.8m2.2-3.3-2.2 3.3m30.9-19.5-3.6-1m-1.2 3.6 1.2-3.6m187 9.6 2.9 2.4m.8 4.6-.8-4.6m-17.7-10.6 3.6.1m1.1 4-1.1-4m-160 11.7.9-2.9m-2.9-3 2.9 3m-33.1-.4 1-4.3m3.3-1.3-3.3 1.3m17.8-1.1 1.2-3.5m3.5 1.6-3.5-1.6m-36 41.1.2-5m1-4.2-1 4.2m181.1-22-2.3 3.6m.7 2.7-.7-2.7m-133.9-8.4 1.1-3m-3.3-2.6 3.3 2.6v.01"/><path d="m46.425 56.25-3.4-2.1m-1.1 3.3 1.1-3.3m18.3 39.1.2 4.1m-16.1-37.9 1-3.2m187.4 26.7-.5-4.9m-1.8-3.6 1.8 3.6m-176.5-6.4 2 3.9m-.7 2.6.7-2.6m119.7 19-.3-2.5m.7-4.4-.7 4.4m-118.4-9.8 1.1 4.2m120.3-9.6-1.6 4.1m-119 8 .3-2.5m119.2-3-.5-2.5m24.8-27.6 3.7-.4m1 3.8-1-3.8m-194.7 12.9-2.6 2.9m-.7 4.7.7-4.7m176.7-5.5-2.7 3.4m.8 2.8-.8-2.8m-161.9-6.7.9-4.1m3.6-.8-3.6.8m195.9 3.4 3.2 1.9m.8 4.4-.8-4.4v.01"/><path d="m236.125 91.15.5 4.3m-31.2-38.5-1-3.6m-3.6 1 3.6-1m-16 12.8-.9-2.9m3-2.9-3 2.9m-133.1 4.8 2.4 3.6m-.7 2.7.7-2.7m-52.4 17.8.3-5m1.4-3.9-1.4 3.9m197.1-26.7-1-3.4m-3.6 1.5 3.6-1.5m-139.6 41.4.1-2.5m-.7-4.3.7 4.3m130.1-29.9-.9-3m3.3-2.5-3.3 2.5m-7.3 12.6-2 3.9m.5 2.6-.5-2.6m50.7 2.3-.4-4.7m-2.3-3.4 2.3 3.4m-205.1-15.4 1-4m3.6-.2-3.6.2m152.7 28.4-1.2 4.2m.3 2.6-.3-2.6m-119.5-2.9.4-2.5m-1.7-4.1 1.7 4.1m138.4-23.1-1-3.3m-3.4 2 3.4-2m-2.5 5.2-.9-3.2m-181.1 12.6.7-4.6m2.9-2.5-2.9 2.5m-10.4 32.1v4.2m.2 5-.2-5m0-4.2v4.2m0-4.2v4.2m217.5-38.6-.8-4.3m-3.4-1.4 3.4 1.4m-166 11.6.7-2.8m-2.7-3.3 2.7 3.3m181.7 28v-4.9m-.9-4.2.9 4.2m-206-32.5.9-3.8m3.7.3-3.7-.3m154.6 14.6-2.4 3.5m.6 2.7-.6-2.7v.01"/><path d="m51.025 67.65.7-2.9m-3.1-2.9 3.1 2.9m-45.9 20.6.3-4.8m1.8-3.7-1.8 3.7m173.1 9.7-.7 4.3m34.3-37.5 3.5.8m.8 4.2-.8-4.2m-160.2 16.5 2 3.8m-.3 2.6.3-2.6m-24.3-19.3.9-3.7m3.6.9-3.6-.9m191.9 13 2.6 2.9m.5 4.7-.5-4.7m-169.8 13.7 1.2 4.2m-.1 2.5.1-2.5m119.7-2.9-.2-2.6m1.6-4-1.6 4m-164.4-15.6.6-4.5m3.2-1.9-3.2 1.9m29.1-3.9 3.2 2.4m-.7 3.1.7-3.1m-11.1-2.3.8-3.5m3.6 1.4-3.6-1.4m6.3 6.6.8-3.2m-3.5-2 3.5 2m-42.2 43.3-.2-4.8m.5-4.3-.5 4.3m.5-4.3-.5 4.3m.5-4.3-.5 4.3m38.1-37.1.8-3.4m144.3 14.8-.6-2.8m2.8-3.3-2.8 3.3m28-8.5-.8-3.9m-3.7-.3 3.7.3m22.4 34.8v-4.9m-1.4-4 1.4 4m-181.5-16.1 2.4 3.5m-.4 2.7.4-2.7m-48.4 7.2.2-4.7m2.2-3.4-2.2 3.4m15-16.9-3.4 1.5m-.6 4.2.6-4.2m41 30 .6 4.1m-.6-4.1.7 4.3m-.7-4.3.7 4.3m127.7-26.6-.5-3m3-2.8-3 2.8m35.3-.6 2.9 2.6m.5 4.5-.5-4.5m-42.8 7.5-2.1 3.8m.3 2.7-.3-2.7m-1.4 6.6-1.1 4.2m0 2.5v-2.5m-121.4-9.5 1.6 4m-.1 2.6.1-2.6m146-27.8 3.7-.2m.8 3.8-.8-3.8m27 52.9.5-5m-44.6-38.2-.6-3.1m3.3-2.3-3.3 2.3m10.4-5.6 3.6-.8m.7 3.7-.7-3.7m-201.7 41.6-.2-4.9m.9-4.2-.9 4.2m.9-4.2-.9 4.2m.9-4.2-.9 4.2m47.5-26 2.7 3.2m-.4 2.8.4-2.8m144.5-11.7-3.5 1.9m.6 3.2-.6-3.2m-168.3-2-3.5.9m-.6 4.1.6-4.1m175.3-.8 3.6-1.4m.6 3.5-.6-3.5m-3 4.7-.6-3.3m35.6 28.6v-4.8m-1.9-3.8 1.9 3.8v.01"/><path d="m224.125 70.05-.4-4.5m-3.2-2 3.2 2m-211 4.9-2.6 3m-.2 4.6.2-4.6m176.1-1.2-2.4 3.4m.2 2.8-.2-2.8m-123.2 18.4-.1-2.6m-1.2-4.1 1.2 4.1m-1.2-4.1 1.2 4.1m-1.2-4.1 1.2 4.1m-4.8-14.4 2.1 3.7m-.2 2.7.2-2.7m-9.9-15.8 3.1 2.7m-.5 3 .5-3m131 14.5-1.7 3.9m0 2.6v-2.6m-150.2-27.4-3.7.4m-.5 3.9.5-3.9m209.7 46.2.5-4.9m-.5-4.3.5 4.3m-189.1-32.4.4-3m-3.3-2.3 3.3 2.3m-42.1 20.4-1.4 4.1m1.4-4.1-1.4 4.1m.3 4.9-.3-4.9m1.4-4.1-1.4 4.1m216.5-21.6-.4-4.3m-186.7-4.7-3.7-.2m187 3.4 3.4 1.5m-191-1.1.6-3.8m158.8 10.5-2.7 3.1m.2 2.8-.2-2.8m45.7 11.7v-4.8m-2.2-3.4 2.2 3.4m-219.4-4.2.2-4.5m3-2.6-3 2.6m31.5-4.6.4-3.2m-3.5-1.8 3.5 1.8m-7.1-3.1-3.7-.7m-.5 3.6.5-3.6m21.8 20.9.1-2.7m-2.4-3.4 2.4 3.4m-18.2-17.5 3.6 1.3m-.4 3.3.4-3.3m-4.1 2.2.5-3.5m142.8 29.1-1.1 4.1m4.8-14.3-2 3.7m0 2.6v-2.6m-124.4 1.3 1.7 3.9m-1.7-3.9 1.7 3.9m-55.4 24.8-.7-5m56.2-17.2-.1-2.6m-1.7-3.9 1.7 3.9m-56.1 15.4v4.4m214.3-41-.4-4.1m-3.5-1.1 3.5 1.1m-25.1 4.4-3.1 2.7m.3 2.9-.3-2.9m46.3 22.7.9 4.2m-.5 4.9.5-4.9m-217.2-30.4-3.2 2.2m-.3 4.4.3-4.4m-8 13.7-1.9 3.8m1.9-3.8-1.9 3.8m1.9-3.8-1.9 3.8m.3 4.9-.3-4.9v.01"/><path d="m229.725 80.45v-4.7m-2.6-3.1 2.6 3.1m-19.8-15.2 3.7.4m.3 4-.3-4m-163.1 9.7 2.8 3m-.1 2.8.1-2.8m139-4.1-.3-3.1m3.3-2.2-3.3 2.2m42.7 52.4.9-4.9m.5-4.3-.5 4.3m-49.2-38.9-2.4 3.4m-124.6 11.5 1 3.5m123.6-12.3v-2.7m22.1-17.8 3.8-.1m.3 3.8-.3-3.8m-11.1 1.9-3.5 1.8m.3 3.2-.3-3.2m-13.3 20.5-1.7 3.9m-.2 2.6.2-2.6m-124.7-8.9 2 3.7m-2-3.7 2 3.7m-2-3.7 2 3.7m.2 2.6-.2-2.6m-53.9 15.1-.5 4.2m.7 5-.7-5m19.1-38.7-3.4 1.6m-.2 4.4.2-4.4m183.5-4.4 3.7-.6m.4 3.7-.4-3.7m-7 5.2-.3-3.4m3.6-1.2-3.6 1.2m4 2.4-.4-3.6m-152 12.3.1-2.9m-3-2.7 3 2.7m184.2 26.1.5-4.9m-1.4-4.1 1.4 4.1m-8.1-14.6v-4.6m-3-2.6 3 2.6m-217.2 5.4-2.2 3.5m2.2-3.5-2.2 3.5m.2 4.8-.2-4.8m2.2-3.5-2.2 3.5m178.7-3.6v-2.9m2.8-3-2.8 3m-164.3-6.8.2-4.2m3.6-1.1-3.6 1.1m21.9 1.8 3.3 2.1m-.2 3.1.2-3.1m132.6 23.3-.5 1.8m56.5 12.2v4.4m-.9 4.9.9-4.9m-180.4-27.1-.1-2.8m-2.4-3.3 2.4 3.3m-2.4-3.3 2.4 3.3m-2.4-3.3 2.4 3.3m4.2 12.8-.4-2.6m-1.6-3.9 1.6 3.9m124.6-8.8-2 3.6m-.3 2.7.3-2.7m-156.3-17.7.2-4.1m3.6-.5-3.6.5m195 4.9 3.2 2.2m0 4.4v-4.4m-219.4 24.3-1 4.2m.7 4.8-.7-4.8m37-34.4 3.5 1.7m-.2 3.2.2-3.2v.01"/><path d="m12.525 74.95-2.6 3.1m2.6-3.1-2.6 3.1m.2 4.7-.2-4.7m2.6-3.1-2.6 3.1m222 5.9 1.9 3.8m-.5 4.9.5-4.9m-41.5-18.2-3.1 2.5m0 3v-3m-159.8-5.7.1-3.9m3.8 0h-3.8m7.5.6 3.7 1.1m-.2 3.4.2-3.4m-7.6 2 .2-3.7m3.7.6-3.7-.6m3.5 4.1.2-3.5m-33.1 49.1.5 4.2m1.2 4.9-1.2-4.9m46-42.8 2.8 2.9m-2.8-2.9 2.8 2.9m-2.8-2.9 2.8 2.9m.1 2.9-.1-2.9m167.7-4.3v-4.3m-3.4-1.7 3.4 1.7m-41.3 25.9.5-2.5m1.6-3.8-1.6 3.8m12.2-18.6v-3.1m3.3-2.1-3.3 2.1m-8.5 14.3.2-2.7m2.4-3.2-2.4 3.2m51.2 29.1.9-5m-.5-4.3.5 4.3m-178-16.5-.3-2.7m-2.1-3.5 2.1 3.5m-42.4-13.8-2.9 2.7m.2 4.6-.2-4.6m2.9-2.7-2.9 2.7m2.9-2.7-2.9 2.7m-6.4 15.3-1.4 4.1m.7 4.9-.7-4.9m212.8-24v-4.2m-3.6-1.2 3.6 1.2m12.2 14.3 2.2 3.5m-.4 4.8.4-4.8m2.8 34.9-.9 4.1m-1.4 4.8 1.4-4.8m-34.7-57.1-3.5 1.6m0 3.2v-3.2m-148.3 3.6 3.1 2.5m-3.1-2.5 3.1 2.5m.1 3-.1-3m-3.1-2.5 3.1 2.5v.01"/><path d="m210.225 64.35 3.7.6m0 4.1v-4.1m-11.1-.1-3.7 1m0 3.4v-3.4m-194 51.2-1.2-4.9m0-4.4v4.4m14.8-42.1-3.3 2.2m3.3-2.2-3.3 2.2m.3 4.5-.3-4.5m3.3-2.2-3.3 2.2m173.8 2.8-2.8 2.9m-.2 2.8.2-2.8m23.8-9.7v-3.9m-3.7 0h3.7m-152.1 24.4 1.2 2.8m147.2-27.2-3.7.5m0 3.5v-3.5m3.7 3.2v-3.7m-150.4 20.9-.4-2.7m-2.4-3.2 2.4 3.2m128.1 1.3-2.1 3.6m-.5 2.6.5-2.6m53 9.3.9 4.2m-.9 4.9.9-4.9m-191.6-31.9 3.3 2m-3.3-2 3.3 2m-3.3-2 3.3 2m.2 3.1-.2-3.1m181.9 14.1.5-4.7m-2.6-3.2 2.6 3.2m-221.8 5.9-1.8 3.9m.7 4.8-.7-4.8m12.8-15.9-.2-4.3m3.4-1.8-3.4 1.8m3.4-1.8-3.4 1.8m3.4-1.8-3.4 1.8m214.6 53.6 1.4-4.8m.5-4.3-.5 4.3v.01"/><path d="m188.925 77.95.3-2.9m3.1-2.4-3.1 2.4m-148.7-7.5 3.5 1.5m-3.5-1.5 3.5 1.5m.2 3.2-.2-3.2m-3.5-1.5 3.5 1.5m-18.3-2-3.6 1.2m.2 4.2-.2-4.2m3.6-1.2-3.6 1.2m3.6-1.2-3.6 1.2m-17 44.4-1.2-4.9m.5-4.4-.5 4.4m222.7-25.9.5-4.6m-3-2.8 3 2.8m-45.9 12.8-1.5 3.5m-129.2-17 2.8 2.8m.4 2.8-.4-2.8m5.5 12-.7-2.6m-2-3.5 2 3.5m-21.3-22.2 3.7 1m-3.7-1 3.7 1m.2 3.4-.2-3.4m-3.7-1 3.7 1m145.7 13.2-2.4 3.1m-.6 2.8.6-2.8m50 17.7.9-4.8m-1.4-4.1 1.4 4.1m-226.1-5.6-.7-4.8m2.2-3.6-2.2 3.6m21.5-20-3.7.7m.2 4-.2-4m3.7-.7-3.7.7m3.7-.7-3.7.7m-20.1 54.2.9 4.1m1.6 4.8-1.6-4.8v.01"/><path d="m33.125 66.15 3.7.4m-3.7-.4 3.7.4m.2 3.6-.2-3.6m-3.7-.4 3.7.4m158.8 4.1-3.3 2m-.3 3 .3-3m-159.2-6.5-3.7.2m.1 3.8-.1-3.8m3.7-.2-3.7.2m3.7-.2-3.7.2m3.9 3.5-.2-3.7v.01"/><path d="m223.725 78.95.4-4.5m-3.2-2.3 3.2 2.3m11.1 35.8v4.3m-1.4 4.9 1.4-4.9m-184.2-35.1-.5-2.9m-3-2.4 3 2.4m8.3 14.8 1.6 3.7m134.9-21.2.3-3.2m3.5-1.4-3.5 1.4m-182.9 8.9-2.6 3.2m.7 4.7-.7-4.7m-4.5 25.5-1.2-4.9m1-4.1-1 4.1m181.2-19.8.6-2.8m2.7-2.8-2.7 2.8m-3 5.9-2 3.4m-.7 2.6.7-2.6m51.2 7.4.9-4.8m-1.8-3.9 1.8 3.9m-15.8-22.3 3.4 1.8m-.4 4.3.4-4.3m-167.2 10 2.4 3.1m.7 2.7-.7-2.7m146.7-16.9-3.7.9m-.3 3.4.3-3.4m-194 47.8.5 4.2m1.6 4.9-1.6-4.9m211.5-46.8.4-4.1m-3.6-1.3 3.6 1.3m-169.6 6.9-.4-3.1m-3.3-1.9 3.3 1.9m159-6.1-3.7.3m-.4 3.5.4-3.5m-187.1 8.4-3 2.8m.7 4.5-.7-4.5m197.5-11.3 3.7.8m-.3 4 .3-4m19.9 46 1.4-4.8m-.5-4.4.5 4.4m-25-42-3.7-.2m-.4 3.7.4-3.7m3.4 4 .3-3.8m-18.2 7.4-3.1 2.3m-.5 3 .5-3m40.3 7.2 2.3 3.6m-.9 4.7.9-4.7m-225 15.2-1.1-4.7m1.4-4.2-1.4 4.2m51.4-11.3 2 3.4m.8 2.4-.8-2.4m171.7 41.2 1.9-4.8m.9-4.1-.9 4.1m-178-42.8-.7-2.8m-2.7-2.7 2.7 2.7m-9.1-6.6-.4-3.3m-3.5-1.3 3.5 1.3m138.3 17 .7-2.6m2.4-3.1-2.4 3.1m-166.9-5.5-.6-4.4m3.2-2.4-3.2 2.4m-9 45.1-1.6-4.8m0-4.4v4.4m36-42.8-.4-3.3m-3.7-.8 3.7.8m150.7 7.8.6-3.1m-183.9 54.5 1.4 3.8m2 4.7-2-4.7m185.8-60.1-3.3 1.8m-169.7-3.2-3.4 1.9m.6 4.2-.6-4.2m207.7 7.5 2.6 3.3m-.8 4.6.8-4.6m4.1 25.6 1.4-4.9m-.9-4.3.9 4.3m-226.1-14.7-1.8 3.9m1.1 4.8-1.1-4.8m26.5-25.2 3.7.3m.5 3.5-.5-3.5m14.7 12.2-.7-2.9m-3.1-2.2 3.1 2.2m131.5 9.8-2 3.4m-157.6-16.1-.6-4.1m3.6-1.4-3.6 1.4m32.1 12.5 2.4 3m.9 2.7-.9-2.7m131.6-7-2.8 2.6m-.8 2.8.8-2.8m-156.1-13.4 3.8-.3m.5 3.7-.5-3.7m200.5 49.6-.5 4.2m-203.8-53.5-3.6.9m.5 4-.5-4m205.6 57.4 1.8-4.8m-203.2-49.7-.6-3.8m169.3 2.5-3.5 1.2m-.6 3.2.6-3.2m30.5 12.5.8-4.5m-2.9-2.9 2.9 2.9m-221 26.4-.5 4.4m1.6 4.9-1.6-4.9m5.7-25.2-2.2 3.7m1.1 4.7-1.1-4.7m223.8 6.3 1.4 4.1m-1.4 4.8 1.4-4.8m-185.2-21.3-.7-3m-3.3-1.7 3.3 1.7m-37.7 57.6-2.1-4.7m-.9-4 .9 4m194.3-58.3-3.6.8m-.6 3.3.6-3.3m21.7 3.8 3.2 2.5m-.8 4.4.8-4.4m-166 11.7 1.9 3.3m131.8-15.2-3 2.2m-.9 2.9.9-2.9m-3.6 5.4-2.3 2.9m-1.1 2.7 1.1-2.7m-127.2-1.5-.9-2.8m-2.7-2.6 2.7 2.6m151.7-13.2-3.7.1m-.6 3.5.6-3.5m17.3 8.9.8-4.3m-3.4-2 3.4 2m13.3 38.6v4.4m-1.9 4.8 1.9-4.8m-6.9 21.4 1.8-3.5m1.8-4.8-1.3 3.7m-217.3-44.2-1.1-4.6m2.6-3.4-2.6 3.4m30.3-13.2 3.5 1.3m.8 3.1-.8-3.1m160.8-.2.7-3.6m3.8.3-3.8-.3m7.5 1.3 3.5 1.4m-.8 4.2.8-4.2m-209.9 38.7-1.6-4.9m.9-4.3-.9 4.3m225.4-6.1 1.4-4.7m-1.8-4 1.8 4m-18.8-24.4-3.7-1m-.8 3.9.8-3.9m2.9 4.9.8-3.9m-32.2 18.9-1.9 3.3m11-13.5.9-3m3.3-1.7-3.3 1.7m-182.1 52.1-2.1-4.7m-.5-4.3.5 4.3m9.1-45-2.9 2.9m1.1 4.5-1.1-4.5m28.5-6.4-.8-3.4m-3.6-.6 3.6.6m17.7 19-1.1-2.6m-2.4-2.9 2.4 2.9m-9.1-10.4 3.1 2.1m.9 2.9-.9-2.9m132.1 6.7 1-2.7m2.7-2.5-2.7 2.5m47.1 33.6 1.9-4.9m-.5-4.3.5 4.3m-4.6-16.9 1.4-4.7m-2.2-3.7 2.2 3.7m-211.1-14.9-3.2 2.6m1 4.4-1-4.4m22-4-.8-3.5m-29.4 35.1-1.6-4.8m27.3-30.4 3.7.1m-29.6 26.2-1.4 4.1m225 24.5-1 4.1m-2.2 4.6 2.2-4.6m-36.7-52.3.9-3.2m3.5-1.1-3.5 1.1m-174.2 5.8-1-4.3m3.4-2-3.4 2m10.6-4.6 3.7-.4m.9 3.6-.9-3.6m15.9 9.7-1.1-3m-3.2-1.6 3.2 1.6m135.2 8.8-2.4 2.9m-1.2 2.6 1.2-2.6m-157.6-11.3-.9-4.1m3.5-1.5-3.5 1.5m8.1 1.3-.9-3.9m-3.7 1.1 3.7-1.1m-16.1 69.2-2.5-4.5m-1.3-3.8 1.3 3.8m-2.7-12-2.1-4.8m0-4.3v4.3m220.3-27.5 1.4-4.6m-2.6-3.4 2.6 3.4m-201-10.8-1-3.9m26.2 10.2 2.7 2.5m1.2 2.7-1.2-2.7m135.2-6-3 2.1m-1.1 2.8 1.1-2.8m14.3-8.5-3.6.6m-1 3.3 1-3.3m33.3 39.6 1.8-4.8m-.9-4.4.9 4.4m-223.6-14.9-1.8 4m1.6 4.6-1.6-4.6m219 41-1.7 3.4m-2.6 4.4 2.6-4.4m-.7-53.4 1.3-4.5m-2.9-3 2.9 3m3.3 46.8 2.4-4.7m.4-4.2-.4 4.2m-26.1-53.1h-3.6m-1 3.5 1-3.5m-159.9 2.3 3.5 1m1 3.2-1-3.2m11.1 11.8 1.7 2.1m163.4-4.9 1.3-4.3m-3.2-2.6 3.2 2.6m-33.5 1.4 1.1-3m3.3-1.5-3.3 1.5m-181.7 40.5-2.1-4.7m.5-4.4-.5 4.4m5.2-25.5-2.2 3.8m1.6 4.5-1.6-4.5m172.8-4.1 1.3-2.7m2.6-2.4-2.6 2.4m20.6-10.1 1-3.6m3.7.6-3.7-.6m-155.7 7.9 2.9 2m1.3 2.9-1.3-2.9m-43.3 45.6.9 4m2.5 4.6-2.5-4.6m220.8-32.7 1.4 4.2m-1.9 4.8 1.9-4.8m-13.9-21.4 1.2-4.2m-3.4-2.1 3.4 2.1m-11.6-1.1 1-3.7m3.7 1-3.7-1m-170.8 1.2 3.6.5m1.1 3.3-1.1-3.3m170.9-.7 3.5 1.7m-1.1 4 1.1-4m-4.6 2.3 1.1-4m11.4 68.5 2.7-4.6m1.4-3.7-1.4 3.7m-213.5-44.2-1.5-4.6m2.6-3.5-2.6 3.5m217.7 36.9 2.3-4.7m0-4.3v4.3m-49.4-32.5-1.9 2.3m16.6-14.8-3.4 1m-1.2 3.1 1.2-3.1m-154.3.3-1.2-3.4m-3.6 0h3.6m190.9 21 1.8 4m-1.8 4.7 1.8-4.7m-221.7 15.7-2.1-4.7m.9-4.4-.9 4.4m6.8 30 1.7 3.3m2.9 4.4-2.9-4.4m42.3-53.3-1.5-2.7m-2.6-2.3 2.6 2.3v.01"/><path d="m46.425 81.85 3.3 1.4m1.2 3-1.2-3m139.7 1.5-3 1.9m-1.3 2.8 1.3-2.8m-170.4 6.4-1.5-4.5m2.8-3-2.8 3m-2.7 47-2.5-4.7m-.5-4.2.5 4.2m21.7-53 3.7-.7m1.2 3.6-1.2-3.6m-15.9 12.7-1.5-4.3m3.2-2.7-3.2 2.7m183.5-6.7-3.6.4m-1.3 3.3 1.3-3.3m-169.8-.3 3.6-1.1m1.3 3.7-1.3-3.7m196.4 24.8 1.8-4.5m-2.2-3.8 2.2 3.8m-171.2-5 2.2 2.7m169.4 28.8 2.3-4.7m-.4-4.4.4 4.4m-208.1-39.3-3.3 2.2m1.4 4.2-1.4-4.2m208.6 50.3-.8 4m-2.8 4.6 2.8-4.6m-199.6-54.3-1.3-3.9m-3.6 1.7 3.6-1.7m-17.2 34.5-2.1-4.7m1.4-4.3-1.4 4.3m17.1-24-1.4-4.1m19.2.3 3.4.9m1.4 3.1-1.4-3.1m138.7 7.6-2.6 2.3m-1.6 2.7 1.6-2.7m10.1-8.4-3.2 1.4m-1.5 3 1.5-3m-138.5 1.5 3 1.9m1.5 2.7-1.5-2.7m150.5-9.2-3.6-.1m-1.4 3.4 1.4-3.4m-183.9 68.8-2.9-4.5m-1.3-3.7 1.3 3.7m211.3-44.3 1.7-4.5m-2.5-3.5 2.5 3.5m-218.2 27.9v4.4m2.6 4.7-2.6-4.7m215.4 18.8-1.6 3.2m-3.1 4.4 3.1-4.4m-41.7-54.2-2.2 2.6m-1.7 2.4 1.7-2.4m-167.4 3.3-1.8 4.1m2 4.7-2-4.7m198.6-24.8-3.7-.7m-1.4 3.6 1.4-3.6m24.7 41.3 2.4-4.7m-1-4.4 1 4.4m-192-35 3.5.4m1.5 3.2-1.5-3.2m178.6 6.7 2.9 3.2m-1.7 4.4 1.7-4.4v.01"/><path d="m55.425 90.85 2.6 2.3m1.6 2.6-1.6-2.6m171.6 35.8-.5 4.2m-2.7 4.6 2.7-4.6m-22.5-49.7 1.5-3.8m3.6 1.3-3.6-1.3m-17 6.8 1.5-3.1m3.3-.8-3.3.8m27.4 8.6 1.6-4.3m-3.1-2.7 3.1 2.7m-33.7.1-2.8 1.7m-1.7 2.8 1.7-2.8m-137.3-4.5 3.1 1.3m1.6 2.9-1.6-2.9m159.3-1.4 1.5-3.9m3.5 1.7-3.5-1.7m3.5 1.7 3.3 2.3m-1.6 4.2 1.6-4.2m-4.9 1.8 1.6-4.1m-201.8 14-2.1 3.7m2 4.6-2-4.6m24.6-19.6 3.6-.2m1.5 3.4-1.5-3.4m-28.1 46.4-2.6-4.7m.5-4.4-.5 4.4m3 13.3.9 3.9m2.9 4.5-2.9-4.5m216.5-32.6 1.3 4.3m-2.2 4.6 2.2-4.6m-5 30.6-1.3 3.7m-3.1 4.3 3.1-4.3m-45.1-48.5 1.8-2.5m2.5-2.2-2.5 2.2m18.5-12.2-3.5.3m-1.5 3.2 1.5-3.2m-179.9 10.5-2.6 3.6m2 4.4-2-4.4m24-12.3-1.5-3.6m-3.6.8 3.6-.8m190.9 52.9 2.8-4.7m0-4.3v4.3m-177.1-39.8 2.9 1.7m1.7 2.7-1.7-2.7m-38.5 56.8 1.7 3.2m3.2 4.3-3.2-4.3m30.8-62.9-1.6-3m-3.3-.8 3.3.8m138.4 5.6 1.7-2.8m3.2-1.3-3.2 1.3m39 23.7 2.3-4.6m-210.4-17-2.8 3.2m1.9 4.4-1.9-4.4m211.4 9.6 1.8 4.2m-15.1 53.1 3.4-4.1m2-2.8-2 2.8m-183.6-70.6-1.6-3.7m-3.6 1.3 3.6-1.3m-20.5 41-2.5-4.7m.9-4.4-.9 4.4m2.1 13.5.4 4.2m3 4.5-3-4.5m191.2-53-3.6-.3m-1.6 3.4 1.6-3.4m-178.7 11.9-1.9-4.3m3.1-2.8-3.1 2.8m6.4-5.1 3.5-1.9m1.7 3.9-1.7-3.9m-3.5 1.9-3.3 2.3m1.8 4.1-1.8-4.1m5.1 1.7-1.8-4m35 11.7-.6-.7m-2.5-2.2 1.9 1.6m166.2 12.1 2.2-4.6m-2.1-3.8 2.1 3.8m-186.4-18.7 3.5.2m1.7 3.2-1.7-3.2m181.9 53.6-.9 4m-3.1 4.4 3.1-4.4m-44-46.8 1.9-2.7m2.8-1.7-2.8 1.7m43.4 37 2.8-4.6m-.5-4.4.5 4.4m-23-41.2-3.6-.9m-1.7 3.5 1.7-3.5m-191.5 26.6-1.3 4.3m2.5 4.6-2.5-4.6m184.2-27.7-3.3.7m-1.8 3 1.8-3m-136.7 5.5-1.9-2.8m-3.1-1.2 3.1 1.2m-36.9 54.8 1.3 3.7m3.3 4.3-3.3-4.3m206.2-44.4 2.2-4.4m-2.5-3.6 2.5 3.6m-4.2 50.9-1.6 3.3m-3.5 4.1 3.5-4.1m-9.3-68.2-3.6-1.4m-1.8 3.6 1.8-3.6m-29.6 16 2.1-2.5m2.4-2-2.4 2m-167.7 30v4.4m2.9 4.5-2.9-4.5m10.4 23.8 2 2.7m3.6 4-3.6-4m19-70.6-1.8-3.3m-3.6.4 3.6-.4m179.7 15.7 2.1-4.4m-2.8-3.3 2.8 3.3m-209.5 9.7-1.8 4.2m2.5 4.6-2.5-4.6m202.1-22.4-3.4-1.9m-1.9 3.8 1.9-3.8m16.2 40 2.7-4.6m-.8-4.5.8 4.5m-174.7-28.3 2.7 1.6m2.1 2.7-2.1-2.7m160.8 2.7 2.1-4.3m-3.1-2.8 3.1 2.8m-22.2-6.3-3.4.1m-1.9 3.2 1.9-3.2m17.3 4.9 1.9-3.9m3.3 2.4-3.3-2.4m13.2 46.9-.4 4.1m-3.2 4.5 3.2-4.5m-11.5-44.5 2-4.1m-27.6.3-3.1 1.1m-1.9 2.8 1.9-2.8m-140-3.2 3.2.6m2 3-2-3m-10.1-.1-1.9-3.5m-3.5.9 3.5-.9m21.8 11.9 2.4 2m-45.9 11.2-2.4-4.5m2.1-3.9-2.1 3.9m5.7 43.4-3.4-4.4m-.8-3.9.8 3.9m-1.3-12.4-2.9-4.6m.4-4.4-.4 4.4m215.5-15.5 1.4 4.3m-2.8 4.6 2.8-4.6m-10.7 38.3 3.5-4.3m1.3-3.6-1.3 3.6m-41.7-52.2 2.1-2.6m2.8-1.6-2.8 1.6m-145.7-6.1-1.9-3.6m-3.5 1.5 3.5-1.5m167.4.8-3.5-.4m-2 3.3 2-3.3m-179.9 11.8-2.5 3.6m2.4 4.4-2.4-4.4m4.8 50.9 1.6 3.2m3.7 4.1-3.7-4.1m188.5 8.7 3.8-3.9m1.9-2.8-1.9 2.8m-162.7-69 3 1m2.1 2.8-2.1-2.8m-11.6-4.7 3.4.1m2 3.1-2-3.1m180.6 41.9v4.4m-3.1 4.5 3.1-4.5m-194.4-43.2-2-3.7m162.1 2.2-3.2.5m-2.1 2.9 2.1-2.9m-162.3-.7 3.4-2m-9.7 7.4-2.8 3.3m2.3 4.2-2.3-4.2m161.5.1-2.4 1.9m-2.3 2.3 2.3-2.3m48.2 7.8 1.7 4.2m-2.7 4.5 2.7-4.5m-197.8-18.8-2.1-3.9m-3.3 2.4 3.3-2.4m-3.3 2.4-3 3m2.2 4.1-2.2-4.1m-5.9 32.9-3-4.5m.9-4.5-.9 4.5m187.5-33 2-3.5m3.5 1-3.5-1m-175.4 9.2-2.2-4.1m-5.5 53.3-3.4-4.4m-.5-4.2.5 4.2m41.7-45.3 2.7 1.5m2.2 2.5-2.2-2.5m-19.9-8.4 3.5-.6m2.1 3.3-2.1-3.3m179.8 24.4 2.6-4.4m-2.1-4 2.1 4m-6.4 43.2 3.6-4.3m.8-3.9-.8 3.9m-40.4-50.1 2.3-2.7m2.9-1-2.9 1m24-4.7-3.5-1.6m-2.1 3.6 2.1-3.6m-143.4 11.7 2.4 1.8m.9.9-.9-.9m162.6 24.3.4 4.4m-3.1 4.5 3.1-4.5m-36.5-37.3 2.2-3m3.3 0h-3.3m-144.3 1.5 3.2.5m2.2 2.9-2.2-2.9m-32.4 57.4 1.2 3.6m3.7 4.1-3.7-4.1m-4.6-29.4-2.9-4.5m1.3-4.3-1.3 4.3m197.6 45.8-2.1 2.1m9.4-11.9-1.6 3.1m-3.8 4.1 3.8-4.1m-184.7 8.6-3.9-3.9m-1.9-2.6 1.9 2.6m193.3-62.2 2.4 3.6m-2.6 4.3 2.6-4.3m-17-10.9 2.2-3.7m3.4 2-3.4-2m-26.3 7.4-2.6 1.5m-2.4 2.4 2.4-2.4m-137.9-6.4-2.2-3.3m-3.5 1 3.5-1m-25 43.7v4.3m3.4 4.4-3.4-4.4m203.6-39.6 2.8 3.4m-2.6 4.1 2.6-4.1m-5.8-6.4-3.2-2.6m-2.3 3.9 2.3-3.9m3.7 9.6 2.5-4m-3-3 3 3m-5.4 1 2.4-4m-161.3.6 2.9.9m2.3 2.6-2.3-2.6m-40.8 14.7-1.7 4.3m2.9 4.4-2.9-4.4m209.2 15.5 3.2-4.4m-.9-4.5.9 4.5m-32.8-32.7 2.2-3.2m3.5.6-3.5-.6m23.8 57.7 3.6-4.4m.5-4.1-.5 4.1m-32.9-50.3-3.1.4m-2.3 2.9 2.3-2.9m-142.3-1.8 3.3-.1m2.3 3-2.3-3m-10 2-2.4-3.6m-3.4 1.6 3.4-1.6m28.1 12.2-2.5-2.3m-2.6-1.4 2.6 1.4m-38.6 53.8-3.8-4.2m-.8-3.9.8 3.9m-.4-34.5-2.9-4.4m2.1-4-2.1 4m15.6 56.3 2.1 2.1m4.2 3.6-3.2-2.8m179.3-10.5 3.9-4.1m1.2-3.6-1.2 3.6m-202.8-27-.5 4.5m3.4 4.4-3.4-4.4m197.9 29.7-1.9 2.6m-4.1 3.8 4.1-3.8v.01"/><path d="m29.525 163.15-4-3.9m3.6-66.6 3.3-2.2m-8.5 65.6 1.6 3.2m9.3-65.1-2.4-3.7m190 34.3 3.1-4.4m-1.3-4.4 1.3 4.4m-28.6-27.5 2.4-3.3m3.4 1.1-3.4-1.1m-19.8 9.1 2.5-2.6m2.9-.8-2.9.8m-161.8 5.6-2.4 3.8m2.8 4.3-2.8-4.3m13.8-9-2.5-3.8m-3.2 2.6 3.2-2.6m27 3.9-2.5-2.7m-3.1-.4 3.1.4m-6.3-.2-2.4-3.1m-3.4.6 3.4-.6m-22 7.7-2.7 3.4m2.7 4.2-2.7-4.2m199.8 40.8 3.7-4.3m0-4.4v4.4m-30.1-46-3.3-.2m-2.4 3 2.4-3m-167.4 6.3 3-3m2.6 3.9-2.6-3.9m153.6 3.4-2.5 1.3m-151.4 2.3-2.7-4m199.7 13.4 1.6 4.3m-3.1 4.4 3.1-4.4m-18.1-23.6-3.4-1.7m-2.5 3.5 2.5-3.5m-184.5 40.8-3.4-4.4m.8-4.5-.8 4.5m2.9 13.2.5 4.2m3.8 4.3-3.8-4.3m37.9-47.9 2.7.8m2.7 2.6-2.7-2.6m141 75.8 2.8-2.2m3.6-3.3-2 2m10.7-15 3.9-4.2m.8-3.8-.8 3.8m-174.7-56-2.6-3.3m-3.3 1.3 3.3-1.3m179 16.4 2.1 4.1m-3.1 4.3 3.1-4.3m-13.2-17.1-3.3-2.2m-2.6 3.6 2.6-3.6m-176.6 70.8 1.8 2.6m4.3 3.7-4.3-3.7m-3.3-5.7-4.1-4m-1.1-3.5 1.1 3.5m37.6-56.1 2.1 1m3.1 2.5-2.8-2.4m118.4-3.1 2.6-2.7m3-.3-3 .3m23.1 69.8 4.2-3.8m1.5-3.1-1.5 3.1m11-32 .5 4.5m-3.7 4.4 3.7-4.4m-26.8-40.9-3.3-.7m-2.6 3.1 2.6-3.1m-140.5 4.2-2.6-2.9m-3.2.2 3.2-.2v.01"/><path d="m19.025 126.95-3.4-4.4m1.3-4.4-1.3 4.4m202.5-18.8 2.4 3.8m-3 4.2 3-4.2m-8-10.3-3.1-2.7m-2.7 3.8 2.7-3.8m5.8 13.3 2.9-4.1m-2.7-3.5 2.7 3.5m-2.7-3.5-2.9-3m-2.8 3.8 2.8-3.8m-30.2.7-2.8.7m-2.7 2.4 2.7-2.4m-138.7-2.8-2.6-3.4m-3.4 1.7 3.4-1.7m174.4 11.8 2.8-4m-197.7 35.7v4.3m3.9 4.3-3.9-4.3m159.1-39.2-2.4 1.2m-2.8 2.3 2.8-2.3m-155.8 11.6-1.7 4.3m3.3 4.3-3.3-4.3m41.9-18.9-2.7-2.7m-3-.2 3 .2m-13.9 78.3-4.6-3.4m-2-2 2 2m184.8-46.7.8 4.5m-3.6 4.4 3.6-4.4m-3.2 13.2-.4 4.2m-4 4.1 4-4.1m-19.4-52.5-3.3-1.3m-2.7 3.2 2.7-3.2m-159.3 4.9-2.8-3.6m-3.2 2.3 3.2-2.3m150.4 3.6 2.7-2.8m3.1.3-3.1-.3m-143.8-.5 3.2-.8m2.7 3.1-2.7-3.1m154.4 77.5 4.5-3.5m1.8-2.6-1.8 2.6m-179.3-11-4.1-4.1m-.8-3.8.8 3.8m11.1 14.4-4.4-3.8m-1.5-3.1 1.5 3.1m185.4-8.5-1.2 3.5m-4.3 3.9 4.3-3.9m-191.9-40.1-3.2-4.2m2-4.1-2 4.1m40.2-14.6 2.7.7m2.8 2.3-2.8-2.3m2.8 2.3 2.4 1.2m-38.2-4.3 3.1-2.7m2.8 3.6-2.8-3.6m-13.4 35-.5 4.5m3.9 4.3-3.9-4.3m6.1-22.1-3.2-4.1m2.3-3.9-2.3 3.9m200.5 10.6 1.3 4.4m-3.6 4.3 3.6-4.3m-18.9-28.8-3.3-1.8m-2.8 3.3 2.8-3.3m-15 3.6-2.9.2m-2.9 2.5 2.9-2.5m-156.7 4.3 2.9-3.1m2.9 3.8-2.9-3.8m-2.4 10.7-3.2-4m2.7-3.6-2.7 3.6m5.7.4-3-4m194.4 35.9v4.3m-4 4.2 4-4.2m-179.2-46.6 3.3-1.4m2.8 3.2-2.8-3.2m11.8 4.7-2.8-2.8m-3.1.4 3.1-.4m143.6 79 3.1-2.2m1.9-2-1.9 2m-26-69.7 3-2.4m2.6-.6-2.6.6m17.4-5-3.2-.8m-2.8 2.9 2.8-2.9m-17.2 8.2-2.2 1.1m47.9 11.4 1.6 4.4m-3.5 4.2 3.5-4.2m-20.5-20.9 2.9-3.5m3.2 2.4-3.2-2.4m-177.4 56.8-4.1-4m-.4-4.2.4 4.2m18.3 24.2-4.7-3.5m-1.7-2.5 1.7 2.5m-13.6-33.7-3.8-4.3m.8-4.5-.8 4.5m192.3 27.1 4.4-3.9m.7-3.9-.7 3.9m-5.5 7.4-1.4 3m-4.6 3.7 4.6-3.7m-175.5-1.1-4.5-3.9m-1.1-3.4 1.1 3.4m33.8-58.4-3-2.4m-2.9-.1 2.9.1m157.2 20.9 3.5-4.2m-2-4.2 2 4.2m-9.8-14.9-3-2.7m-3 3.5 3-3.5m-169.1-.6 3.2-1.9m2.9 3.3-2.9-3.3m21 5.8 2.5.6m3.1 2.3-3.1-2.3m155.3 31.4.4 4.5m-4 4.1 4-4.1m-147.3-30.5-3.1-2m-2.2-1.1 2.2 1.1m118.6-7.5-3-.4m-3 2.6 3-2.6m30 10.1 2.3 3.9m-3.4 4.1 3.4-4.1m-10.9-7 3.1-3.7m2.9 3.2-2.9-3.2m-18.5-1.9 3-3.1m3.2 1.4-3.2-1.4m-174 26.4-1.2 4.5m3.8 4.2-3.8-4.2m34-27.3-3-2.9m-3.1.9 3.1-.9m-9.7 76.2 1.9 1.9m4.8 3.2-4.8-3.2m170.4-70.6 2.6 3.6m-3.3 4 3.3-4m-5.8.3 3.2-3.9m-191 36v4.3m4.2 4.1-4.2-4.1m19-43.5-3-3.3m-3.2 2.3 3.2-2.3m138.7 5.1 3.1-2.4m2.8-.1-2.8.1m17.5 74.1 4.8-3.4m1.7-2.4-1.7 2.4m-31-65.5-2.2 1m-3.2 2 3.2-2m-144.6 20-3.7-4.2m1.6-4.4-1.6 4.4m191.1 32.3 4.3-4m.4-4.1-.4 4.1m-39.3-47.9-2.5.6m-3.1 2.2 3.1-2.2m-141.3 60.5 1.4 3m4.8 3.5-4.8-3.5m181.7-29.2 4-4.1m-.8-4.6.8 4.6m-193.5 19.1.8 3.9m4.5 3.8-4.5-3.8m177.9 9.1 4.6-3.7m1.1-3.5-1.1 3.5m-156.4-62.4 2.9-.5m3.2 2.5-3.2-2.5m144.7.3-3.2-2m-3.1 3.2 3.1-3.2m-159.8 6.2-3.2-3.6m-3 2.9 3-2.9m156.8-.9-3-1m-3.2 2.8 3.2-2.8m-164.4 15.7-2 4.2m3.7 4.1-3.7-4.1m21.9-18.9 3.2-1.5m3.1 2.9-3.1-2.9m143.2 81.9 5-3.1m1.8-1.9-1.6 1.6m-160.6-69.5-3.3-3.7m-2.8 3.3 2.8-3.3m27.7-1.3h2.7m3.2 2.4-3.2-2.4m8.9 5.1 2 .9m2 1.2-2-1.2m-50.7 28.1-.4 4.5m4.2 4.1-4.2-4.1m5.8-22.4-3.6-4m2.3-4-2.3 4m46.9-7.1-3.3-2.2m-2.4-.5 2.4.5m-35.4 5.5-3.4-3.8m-2.5 3.6 2.5-3.6m186.3 27 3.9-4.2m-1.2-4.5 1.2 4.5m-189.2-15.2-3.5-4m171.3-7.1 3.2-3.3m3.1 2.4-3.1-2.4m-155.3 76.7-5-3.2m-1.6-2.5 1.6 2.5m149.8 6.6-1.9 1.2m-5.2 2.8 4.6-2.5m28.4-38.8v4.4m-4.4 4 4.4-4m-31-45.7-2.8-.6m-3.3 2.6 3.3-2.6m22.6 65.4-1.4 3m-4.9 3.4 4.9-3.4m-162.8-67.7 3.1-1.9m3.3 3.1-3.3-3.1m-13 57.5-4.6-3.9m-.3-4.1.3 4.1m30.2-50.5-3.3-2.6m-3 .9 3-.9m163 20.5 1.6 4.4m-3.9 4.1 3.9-4.1m-186.2 35.9 1.1 3.5m4.8 3.6-4.8-3.6m146.4-61-2.6-.1m-3.3 2.4 3.3-2.4m29.5 59.5 4.7-3.8m.8-3.8-.8 3.8m-22.5-56.5 3.2-2.9m3.1 1.5-3.1-1.5m9.1 6.2 3.4-3.5m2.9 2.9-2.9-2.9m-30.7 3.4-2.3.4m-3.4 2.1 3.4-2.1m-147.9 25.5-.8 4.6m4.1 4.1-4.1-4.1m30.2 45.3-5.2-3m-1.7-1.9 1.7 1.9m167.1-62.2 1.9 4.3m-3.8 4 3.8-4m-6.6-12-2.8-3.4m-3.5 3.7 3.5-3.7m-150.3-2.5 2.8-.6m3.3 2.6-3.3-2.6m-6.9 79.4 1.8 1.2m5.3 2.7-5.3-2.7m157.6-36 4.4-4m-.4-4.5.4 4.5m-178.4-38.6 3-2.6m3.4 3.3-3.4-3.3m171.3 10.8 2.2 4m-3.8 4 3.8-4m-15.6 56.3-1.6 2.4m-5.1 3.2 5.1-3.2m15-62.7-2.5-3.7m-3.6 3.7 3.6-3.7m-1.2 7.6 3.7-3.9m-143.5-5.5 2.3.4m3.4 2-3.4-2m-46.8 19.9-1.1 4.5m4.1 4.1-4.1-4.1m45.6-24.8-3.4-2.3m-2.6.2 2.6-.2m123-2-3-1.1m-3.3 2.7 3.3-2.7m5.9 2.8 3.4-3.1m3.1 2.1-3.1-2.1m-164 51.9-4.5-3.9m0-4.3v4.3m11.5 18.9 1.4 2.9m5 3.4-5-3.4m14.7-67-3.4-2.9m-3 1.7 3-1.7m134.8 81.9 5.3-2.9m1.7-1.8-1.7 1.8m-155.4-72.9 2.9-3m3.5 3.4-3.5-3.4v.01"/><path d="m199.825 169.25 5-3.5m1-3.4-1 3.4m1.7-7.2 4.8-3.8m.3-4.1-.3 4.1m-180.6 1.9.7 3.8m4.9 3.7-4.9-3.7m-3.4-29.8-4.1-4m1.6-4.5-1.6 4.5m157.8-23-2.8-.7m-3.4 2.5 3.4-2.5m32.4 38.8 4.3-4m-.7-4.5.7 4.5m-51.9-28.1 3.6-1.9m2.2-.3-2.2.3m10.3 78.4 5.4-2.6m1.8-1.1-1.8 1.1m-7.5-78.1-2.5-.2m-3.5 2.2 3.5-2.2m-134.6 4.9-3.7-3.5m-2.7 3.4 2.7-3.4m15.8 72.6-5.2-3.1m-1.6-2.3 1.6 2.3m148.5-70.2 3.6-3.2m-170 15.1-1.9 4.3m4 4-4-4m174.8-16.8-2.9-2.6m-137.6 2.2-3.5-2.7m-2.9 1.2 2.9-1.2m-26.7 11.6 2.4-3.8m3.8 3.6-3.8-3.6m-1.7 38.2-4.5-3.9m.3-4.5-.3 4.5m3.8-30.5-2.2 4m3.9 3.9-3.9-3.9m16.6-13.5 3-2.1m3.5 3-3.5-3m143.9 1.5-2.9-1.7m-3.6 2.8 3.6-2.8m-154.6 15.5-3.8-3.7m42.4-5.4 2.1.3m3.1 1.6-3.1-1.6m125.7 60.5-1.3 2.9m-5.3 3.3 5.3-3.3m15.2-43.5 1.2 4.6m-4.4 3.9 4.4-3.9m-157.3 50.5-5.4-2.7m-1.7-1.8 1.7 1.8m13.8-74.5-3.6-2.3m-2.6.7 2.6-.7m9.6 4.2-3.6-2.1m-2.4.2 2.4-.2m138.5 48.1 4.7-3.8m0-4.4v4.4m-146.8 36.7-5.5-2.4m-1.7-1.2 1.7 1.2m143.8-76.5-2.8-3.1m-3.7 3.3 3.7-3.3m-157.8 65.6-5.2-3.4m-1-3.4 1 3.4v.01"/><path d="m30.325 152.55.4 4.1m4.9 3.7-4.9-3.7m175.8 1.9-.7 3.8m-5 3.5 5-3.5m3.6-29.8 4.3-3.9m-1.5-4.5 1.5 4.5m-29.3-23.8-2.7-1.2m-3.7 2.5 3.7-2.5m-16 5.8-2 .2m-3.7 1.8 3.7-1.8m29.5 65.8-1.4 2.3m-5.4 3 5.4-3m-164.9-42.5-.8 4.6m4.6 3.9-4.6-3.9m21.6-32.3-3.7-3.2m-2.9 2.7 2.9-2.7m161.8 7.5-2.7-3.4m-3.8 3.4 3.8-3.4m-152.6-3.2 2.9-1.8m3.7 2.8-3.7-2.8m140.4 2.5-2.9-2.2m-3.7 2.9 3.7-2.9m-12.9 2.4-2.5-.7m-3.7 2.3 3.7-2.3m-3.7 2.3-2.3-.3m-3.8 2 3.8-2m38.5 20.6 4.2-3.9m-1.9-4.3 1.9 4.3m-25.8 56.6-1.6 1.7m-5.6 2.6 5.6-2.6m17.1-67 3.9-3.6m2.4 3.9-2.4-3.9m-26.6 73.2-1.6 1.1m-5.6 2.4 5.6-2.4m-135.1-15.2 1.2 2.9m5.4 3.1-5.4-3.1m164.5-58.1 2.1 4.1m-4.1 3.7 4.1-3.7m1 21.9.3 4.5m-4.7 3.9 4.7-3.9m-7.4-26.9 4-3.6m-126.6-3.4-3.8-1.7m-1.9-.2 1.9.2m-46.4 28.4-4.5-3.8m1.1-4.6-1.1 4.6m18.1-24.9-3.9-3.3m-2.7 3.1 2.7-3.1m16-.8 2.7-1.3m3.7 2.5-3.7-2.5m134.7 67.6 5.3-3.3m1-3.4-1 3.4m-164.5-13-5-3.7m0-4.3v4.3m39.5-43.8 2.2-.3m3.9 2-3.9-2m-36.4 51.9.7 3.8m5.2 3.4-5.2-3.4m170.6-9.7-.4 4.1m-5.1 3.6 5.1-3.6m-150.4 23.5-5.6-2.8m-1.4-2.3 1.4 2.3m19.3-70.5-3.8-2.2m-2.5.9 2.5-.9m124 2.5 3.8-3.1m2.8 2.7-2.8-2.7m-6.6.7-2.8-1.8m-3.8 2.7 3.8-2.7m-28.4 8.3 4-1.7m1.8-.1-1.8.1m-89.4 78.1-5.8-2.2m-1.5-1 1.5 1m-32.3-52.9-4.5-3.8m1.5-4.5-1.5 4.5m35.3 55.7-5.7-2.6m-1.5-1.7 1.5 1.7m-3.2-75.6-3.9-2.9m-2.8 2.3 2.8-2.3m-8.2 8.3-3.9-3.4m-2.6 3.5 2.6-3.5m172.1 27 .8 4.6m-4.8 3.8 4.8-3.8m-16.8 30.8-1.3 2.9m-5.5 3 5.5-3m-159.3-45.6-4.4-3.7m1.8-4.4-1.8 4.4m3.9-8.6 2.4-3.9m4.1 3.5-4.1-3.5m126-2.3 3.9-1.9m2.1.4-2.1-.4m8.4-.9 3.9-2.4m2.6 1.4-2.6-1.4m-98.1 6.1 1.7.1m-46 13.1-4.3-3.7m2.1-4.2-2.1 4.2m6.3-.6-4.2-3.6m134.4-7.7 4-2.1m2.3.8-2.3-.8m-141.1 36-.4 4.5m5 3.7-5-3.7m169-36.4-2.7-3.2m-3.9 3.2 3.9-3.2m-155.1 58.9 1 3.4m5.5 3.2-5.5-3.2m145.2 7.5-1.3 2.3m-5.7 2.7 5.7-2.7m-12.9 6.8-1.5 1m-5.9 2.1 5.9-2.1m37.4-56 1.1 4.6m-4.7 3.8 4.7-3.8m-149.5-28.3-3.9-2.6m-2.7 1.9 2.7-1.9m149.8 43.9v4.3m-5.1 3.6 5.1-3.6m-33.4 33.1 5.7-2.5m1.5-1.6-1.5 1.6m16.2-15.8 5.4-3.4m.6-3.7-.6 3.7m-149.1-55.3-4-3m-2.7 2.8 2.7-2.8m-12.4 48.7.3 4.1m5.3 3.5-5.3-3.5m154.4-51.3-2.8-2.4m-3.9 2.8 3.9-2.8m-113.4 4.2 2.1-.4m4 1.8-4-1.8m81.8 2.6-1.7.1m45.9 2.3-2.6-3.6m-4.1 3.3 4.1-3.3m-138.3-3 2.5-1.4m4 2.3-4-2.3m10.3 3.4-4-2.1m-2.3 1 2.3-1m135 27.5 4.6-3.7m-1.4-4.5 1.4 4.5m-161.4 41.6 1.1 2.8m5.7 2.9-5.7-2.9m-17.7-37.9-.7 4.7m4.9 3.6-4.9-3.6m45.8 47.8-5.9-2m-1.4-.9 1.4.9m13.4-75.7h1.6m4.1 1.4-4.1-1.4m112 5 4.3-3.4m2.3 3.9-2.3-3.9m4.3 8.1 1.8 4.5m-4.6 3.6 4.6-3.6m-50.3-15 4.1-1.7m1.9.4-1.9-.4m-99.9 73.3-5.8-2.6m-1.3-2.2 1.3 2.2m-7-68.6-4.1-3.1m138.3-.9-2.7-1.9m-138.3 6 2.7-3.2m131.6-.3 4-2.5m-118.7 77.1 1.4 1.7m5.9 2.3-5.9-2.3m142.9-62.8-2-4.2m-4.4 3.5 4.4-3.5m-15.4 56.3 5.7-3.1m.9-3.3-.9 3.3m7.2-45.4 4.5-3.6m-4.4 30.2 5.1-3.6m-.4-4.6.4 4.6m-148.4-39.3-4.1-2.7m-2.7 2.4 2.7-2.4m138.3 3.7-2.7-2.8m-4.1 2.9 4.1-2.9m-26.3 2.7 4.1-1.9m2.3 1-2.3-1m2.3 1 4-2.3m2.5 1.5-2.5-1.5m-26.3 7.3 4.2-1.3m1.5 0h-1.5m-111.1 49.3.6 3.7m5.6 3.3-5.6-3.3m-9-33.1-1.1 4.6m4.9 3.7-4.9-3.7m9.2 20.7-5.3-3.5m0-4.3v4.3m160.7 9.3 5.4-3.4m.4-4.1-.4 4.1m-41.3 30.3 6-1.8m1.3-1-1.3 1m-82.1-76.8-4.1-1.6m-1.9.5 1.9-.5m-33.3 4.5-4.3-3.2m-2.4 3.6 2.4-3.6m139.6 67.6 5.8-2.7m1.1-2.8-1.1 2.8m-99.3-63.2h1.3m4.3 1.2-4.3-1.2m85.1 70.6-1.3 1.7m-6.1 2.1 6.1-2.1m-108.3-76.3-4.2-2.4m-2.5 2 2.5-2m120.9 72.3-1.2 2.3m-5.9 2.4 5.9-2.4m-146.8-53.6-1.4 4.6m4.8 3.6-4.8-3.6m45.5-21.7-4.2-1.9m127.6 38.3 5.1-3.6m-.7-4.6.7 4.6m-134.8-33.7 2.1-1m-29.5 9.7-4.4-3.4m-2.3 4 2.3-4m155.3-2-2.5-3.3m-4.3 3.1 4.3-3.1m-121 0-4.2-2.1m-2.3 1.5 2.3-1.5m86 4.8 4.2-1.5m1.8.5-1.8-.5m-75.1 80.2-6.1-1.7m-1.2-.9 1.2.9m-29.4-20.7.9 3.3m5.7 2.9-5.7-2.9m137.9-62.2-2.6-2.5m-4.3 2.6 4.3-2.6m-147.7 16-1.7 4.4m4.8 3.6-4.8-3.6m115.2-13.9-1.3-.1m-4.3 1.1 4.3-1.1m-98.7-2.4 2.6-2.9m4.3 2.8-4.3-2.8m-9.5 14-4.6-3.4m-2 4.3 2-4.3m2.7 7.8-4.7-3.5m0 21.9-.3 4.6m5.3 3.5-5.3-3.5m154.4 20.4 5.7-3.1m.6-3.7-.6 3.7m-120.1 21.4-6.1-2m-1.3-1.6 1.3 1.6m-8.5-6.2-5.9-2.6m-1.1-2.8 1.1 2.8m38-63.3 1.2-.1m4.3 1-4.3-1m107.8 37.3v4.3m-5.5 3.4 5.5-3.4m-36-45.2-2.1-1.1m-4.2 1.8 4.2-1.8m-123.1 48 .3 4.1m5.6 3.2-5.6-3.2m159.9-19.3 5-3.6m-1-4.7 1 4.7m-123.4-26.6 1.6-.5m4.4 1.4-4.4-1.4m88.3-1.5 4.3-2.3m2.4 2-2.4-2m21 8.8-2.4-3.7m-4.4 3.2 4.4-3.2m-40.3 78.6 5.2-1.3m1.1-.9-1.1.9m-92.2-5.4-6-2.4m-1.2-2.2 1.2 2.2m110.4-72.3-2.2-1.5m-4.3 2 4.3-2m-31 7 4.4-.9v.01"/><path d="m144.625 117.05-1.1-.1m-80.7-3.6-4.3-2.5m-2.5 2.5 2.5-2.5m-11.9 5.9 2.5-3.3m4.4 2.9-4.4-2.9m154.3 18.2 1.4 4.6m-5 3.5 5-3.5m-49.8-21.1-1.5-.6m-4.4 1.4 4.4-1.4m29.4 63.9 5.9-2.8m.9-3.3-.9 3.3m11-52.8-2.2-4m-4.6 3.2 4.6-3.2m-161.3 23.9-.7 4.6m5.3 3.5-5.3-3.5m152.8-32.4-2.5-3m-4.4 2.7 4.4-2.7m-109.8 1.9 1.9-1.1m4.4 1.6-4.4-1.6m19.3 4.8 1-.1m4.5.8-4.5-.8m70.3 70.7-1.2 1.5m-6.2 1.9 6.2-1.9m-78.5 5.1-6.3-1.5m-1-.8 1 .8m119.1-66.1 1.7 4.5m-4.9 3.5 4.9-3.5m-1.7-4.5-1.9-4.3m-4.7 3.3 4.7-3.3m-130.3-9.4-4.3-2.2m-2.4 2.1 2.4-2.1m117.7 67.2-1 2.7m-6 2.6 6-2.6m15-50.6 4.8-3.4m-148.8 46.6-5.8-2.9m29-57-4.4-2m-2.2 1.6 2.2-1.6m-25.2 55.2.6 3.8m121.5 17.3 6.2-2.3m1.1-2.1-1.1 2.1m-40.2-67.2 4.5-.8m.9.2-.9-.2m57.2 39.2 5.5-3.3m-.4-4.6.4 4.6m-109-37.2-4.4-1.3m-1.5.6 1.5-.6m107.9 46.2-.3 4.1m-5.7 3.1 5.7-3.1m-155.4-10.1v4.3m5.6 3.3-5.6-3.3m3.7-39.2 2.3-3.8m4.6 3-4.6-3m108.3 76.4-.9.8m-6.4 1.4 6.3-1.3m7.4-79.3-1.8-1.2m-4.5 1.6 4.5-1.6m-52.2 5.4-4.5-.7m-.8.2.8-.2m-61.3 27.9-5.2-3.4m1-4.7-1 4.7m45.3 49.7-6.3-1.8m-1.1-1.5 1.1 1.5m99.3-76.1 4.4-2.5m2.5 2.6-2.5-2.6m-28.6 4.5-1.3-.6m-4.5 1.1 4.5-1.1m-19 3.2 4.5-.5v.01"/><path d="m135.325 118.75-.7-.1m49.2-.9 4.6-2.8m2.4 3.4-2.4-3.4m-128.7 64.8-6-2.7m-.8-3.3.8 3.3m6.8-61.1-4.5-2.6m-2.5 3 2.5-3m105.3 1.4 4.5-1.9m2 1.7-2-1.7m-59.1 6.2.6-.1m4.5.4-4.5-.4m-12 77-6.4-1.2m-.9-.8.9.8m-39.9-71.1-4.7-3.1m-2.1 4 2.1-4m123.5-6 4.5-2.2m2.3 2.2-2.3-2.2m-98.1 76.8-6.3-2.1m-1-2.2 1 2.2m-25.4-45.6-5.2-3.4m1.4-4.6-1.4 4.6m22.4 41.7 1 2.7m6.2 2.4-6.2-2.4m20-66.9 1.7-1.2m4.5 1.5-4.5-1.5m118.4 30.2.6 4.6m-5.4 3.4 5.4-3.4m-75.9-29.7 4.6-.3m.5.2-.5-.2m-38.6-1.9 1.3-.7m4.5 1-4.5-1m23.6 3-4.6-.2m-.3.2.3-.2m43.1 73.8 6.3-1.6m1.1-1.5-1.1 1.5m29.1-22.9-.6 3.7m-6 2.8 6-2.8m-149.4-43.4 1.9-4.4m4.8 3.2-4.8-3.2m1.5 12.2-5-3.3m1.6-4.5-1.6 4.5m82.2-13.8 4.6-.2m.3.2-.3-.2m22.9 75.1-.8.8m-6.4 1.1 6.4-1.1m-102.3-63.2-5-3.2m80.6-9.3-4.5-.1m-.1.2.1-.2m-75.5 31.3-.3 4.6m5.6 3.2-5.6-3.2m80.4-35.6-.1-.2m-60.4-3.7 2.3-2.6m4.6 2.3-4.6-2.3m130.2 8.7-2.2-3.7m-4.7 2.9 4.7-2.9m-138.4 51.7-5.9-3m-.3-4 .3 4m93.5-49 4.6-1m1.1.7-1.1-.7m-70.5-1.5 2-1.7m4.6 1.7-4.6-1.7m120.2 43.2v4.4m-5.7 3.1 5.7-3.1m-45.9-44.9 4.6-1.4m1.6 1.3-1.6-1.3m-80.9.4-4.6-2.1m-2.1 2.2 2.1-2.2m92.8 76.6 6.3-1.9m26.8-40.3 5.4-3.3m-31.2 41.4-1 2.2m31.2-48.4 1 4.8m-24 36.4 6.1-2.5m.8-3.3-.8 3.3m.9-60.7-2.3-3.1m-4.7 2.5 4.7-2.5m-79.8 82.2-6.4-.9m-.7-.8.7.8m-44.1-76.2 2.3-3.4m4.7 2.7-4.7-2.7m27.1 74.6 1 1.5m6.4 1.5-6.4-1.5m20.4-74-4.7-.9m-1 .8 1-.8m72.3 68.4 6.3-2.2m.9-2.8-.9 2.8m19.2-57.6-2.1-4.1m-4.8 3.1 4.8-3.1m-58.4 75.1 6.6-.7m.6-.8-.6.8m-55.8-79.3 1.5-1.3m4.6 1.4-4.6-1.4m48.4 2.9 4.7-.7m.9.7-.9-.7m23.2-1.6-1.9-1.7m-4.7 1.7 4.7-1.7m37.2 20.4 1.3 4.6m-5.3 3.3 5.3-3.3m-147.4 30.3.5 3.7m6.1 2.8-6.1-2.8m-11.4-27.6-.6 4.7m5.6 3.3-5.6-3.3m135.9-33.7-2.2-2.6m-4.7 2.2 4.7-2.2m-26.2 80 6.5-1.4m.8-1.4-.8 1.4m35.2-63.8 5-3.2m1.8 4.4-1.8-4.4m-93.9 69.9.5.8m6.6.6-6.6-.6m-21.1-5.9-6.4-1.8m-.9-2.2.9 2.2m89-72.7 4.6-1.9m2.1 2.2-2.1-2.2m-61.1 4.5-4.7-.6m-.8.8.8-.8m91.2 19.9 5.3-3.2m-1.6-4.6 1.6 4.6m-6.7-1.4 5.1-3.2m-140.9-7.9-4.8-2.9m-2.2 3.9 2.2-3.9m100.7-1.9-1.5-1.3m-4.7 1.2 4.7-1.2m40.2 48-.3 4.1m-6.1 2.9 6.1-2.9m.3-8.4 5.7-3.2m-.3-4.5.3 4.5m-61.2 39.4-.5.7m-6.6.5 6.6-.5m-76.4-78.1 2.3-3.1m4.7 2.4-4.7-2.4m5.5 66.2-6.3-2.4m-.7-3.2.7 3.2m-7.6-13.7-5.9-3m0-4.4v4.4m89.8-43.5-.7-.8m-4.7.6 4.7-.6m-69.3 63.4.9 2.7m6.4 2.1-6.4-2.1m119.2-63.6-2.3-3.5m-4.8 2.6 4.8-2.6m-104.9-.4 1.8-1.8m4.7 1.6-4.7-1.6m34.2 82.3-6.6-.4m-.3-.7.3.7m-13.7-2.3-6.6-1.2m-.8-1.5.8 1.5m-40.9-44.5-5.6-3.3m1-4.7-1 4.7m70-26.6-4.8-.5m-.6.9.6-.9m21.6 77.9-.3.7m-6.6.2 6.6-.2m-31.7-79.3-4.8-1.1m-1.3 1.3 1.3-1.3m23.3 79.8.1.8m6.5 0h-6.5m48.2-9.9-.8 2.1m-6.6 1.7 6.6-1.7m-97.1-71.7 2.2-2.7m4.8 2.2-4.8-2.2m58.4 4 4.8-.3m.5.8-.5-.8m-76.6 7.2-5-2.9m-2 4.1 2-4.1m72.5 73.5-.1.7m-42.5-80.5-4.8-1.8m-1.9 2.3 1.9-2.3m103.4 62.2 6.2-2.6m.5-3.6-.5 3.6m-72.6-54.8.4-.8m4.8.2-4.8-.2m37.6 73.6-.7 1.4m-6.6 1.1 6.6-1.1m-22.3-74-.3-.9m26.1-1.8 4.7-1.4m-35.6 3.4 4.8-.2m32.5-1.4-1.7-1.8m-108.6 28.2-5.5-3.2m1.2-4.7-1.2 4.7m98.4-22.7 4.8-1m1.2 1.4-1.2-1.4m49.7 30.1.6 4.7m-5.7 3.1 5.7-3.1m-79.9-31.9.2-.9m4.7.1-4.7-.1m4.7 1v-.9m42.1 68.1 6.5-2m.8-2.7-.8 2.7m-117.4-55.2-5.2-3m-1.7 4.4 1.7-4.4m132-7.4-2.2-3.2m-4.8 2.4 4.8-2.4m-6.4 66.1 6.4-2.3m.7-3.2-.7 3.2m11.4-55.8-2.1-3.9m-5 2.7 5-2.7m-134 44.8.3 4m6.1 2.8-6.1-2.8m-3.3-30.1-5.4-3.2m1.6-4.6-1.6 4.6m6.8-1.5-5.2-3.1m17.8-10.6-4.9-2.5m-2.2 3.6 2.2-3.6m29 73.4-6.6-1.5m-.8-2.1.8 2.1m-34.1-36.8-.3 4.5m5.9 3-5.9-3m55 37.4-6.6-.9m-.7-1.5.7 1.5m89.9-27.7 6.1-2.9m0-4.3v4.3m-89.4-45.3-4.9-.9m-1.1 1.3 1.1-1.3m68.7.4-1.8-2.3m-4.9 1.8 4.9-1.8m8.8 3.1-2.1-2.8m-4.9 2 4.9-2m-79.7 1.8-4.8-1.4m-1.6 1.9 1.6-1.9m109.1 25.9.9 4.8m-5.7 3.1 5.7-3.1m-60.3 48.6 6.7-.8m.5-1.4-.5 1.4m-5.8-76.1 4.9-.8m1 1.4-1-1.4m49.2 10.6-1.9-4.2m-5.2 2.8 5.2-2.8m-122.8 53.8-6.4-2.4m-.5-3.7.5 3.7m13.5 7.8.8 2.6m6.5 1.9-6.5-1.9m75.8 6.2 6.6-1.4m.8-2.1-.8 2.1m-85.5-71.1-5-2.3m-2.1 3.2 2.1-3.2m.2 60.6.6 3.2m6.5 2.2-6.5-2.2m34.8 12.5.4 1.4m45.7-76.9 5-1.3m1.4 1.9-1.4-1.9m-43.9 78.9-6.8-.7m-.9-75.4.9-1.4m4.9.7-4.9-.7m-24.1.5 1.8-2.4m4.9 1.7-4.9-1.7m114.3 21 1.3 4.7m-5.7 3.1 5.7-3.1m-140.5-16.5 2-3.9m5.2 2.6-5.2-2.6m-8.9 26.8-.6 4.7m5.9 3-5.9-3m138.3-22 5.3-2.8m1.7 4.4-1.7-4.4m-9-5.4-2.1-3.6m-5.1 2.4 5.1-2.4m5.5 47.1-.3 4.1m-6.2 2.6 6.2-2.6v.01"/><path d="m70.225 120.65 2-2.8m4.9 1.9-4.9-1.9m56.1 79.1 6.8-.5m.3-1.4-.3 1.4m1.7-75.4-.8-1.5m-4.9.6 4.9-.6m55.8 14.2 1.4 4.6m-5.5 3 5.5-3m-6.8-1.7 5.4-2.9m-97.9 59.9-6.7-1.2m-.6-2.1.6 2.1m97.3-29.3 6.1-2.9m-.3-4.6.3 4.6m-132.3 8.6-6.2-2.8m0-4.4v4.4m55.6 29.3.3 1.4m6.8.3-6.8-.3m-19.1-76.3 1.3-1.9m5 1.1-5-1.1m66.3 71.1 6.6-1.7m.7-2.7-.7 2.7m-57.6-66.6.6-1.4m5 .4-5-.4m22.4 75.6-.2 1.4m-6.8.2 6.8-.2m25-77.2 5-1.5m1.7 2.4-1.7-2.4m12.7 61.8 6.5-2.3m.5-3.6-.5 3.6m-45.9-56.1-.5-1.5m-5 .4 5-.4m-9.6 77-6.7-.1m-.2-1.4.2 1.4m6.7-1.3v1.4m49.5-17.1-.6 3.2m-6.6 2 6.6-2m3.5-60.5-1.9-3.2m-5.1 2.1 5.1-2.1m-119.8 11.2 1.8-4.2m5.3 2.7-5.3-2.7m-6 18.1-.9 4.8m5.8 2.9-5.8-2.9m95.2 44.8 6.8-1.1m.6-2.1-.6 2.1m-33-72.5-5-.3m-.4 1.5.4-1.5m37.1.7-1.3-1.9m-5 1 5-1m13.1 1.5 5-1.9m1.9 2.9-1.9-2.9m-38.6 3.3-.3-1.5m-5.1.2 5.1-.2m-10.2 1.6.2-1.5m4.9.1-4.9-.1m-47.8 3.2-5.2-2.3m-1.9 3.7 1.9-3.7m119.9 6.4-1.9-4m-5.3 2.5 5.3-2.5m-60-1.8-.1-1.4m-41.8 65.4.6 2.7m6.8 1.5-6.8-1.5m-14.9-13.5-6.4-2.5m-.2-4 .2 4m30.4-52.4-5.1-1.4m-1.5 2.4 1.5-2.4m-26.2 14.5-5.4-2.8m-1.7 4.5 1.7-4.5m-3.1 9.2-1.1 4.7m5.7 2.9-5.7-2.9m141.7 6.3.6 4.7m-6.1 2.9 6.1-2.9v.01"/><path d="m100.825 194.65-6.9-1m-.5-2 .5 2m.2-72 1.1-2m5.1 1-5.1-1m83 50.4 6.3-2.6m0-4.3v4.3m-128.4-29.4-5.6-2.8m-1.4 4.7 1.4-4.7m7.8 29.2-6.2-2.8m.3-4.5-.3 4.5m2.7-18.9-5.7-2.8m22.8 41.2.6 3.2m6.7 1.8-6.7-1.8m-7.6-9 .5 3.6m6.5 2.2-6.5-2.2m2.9-55.1 1.9-3.2m5.2 2-5.2-2m5.2 2 1.7-2.9m5.2 1.7-5.2-1.7m59.7 1.3 5.1-.9m1 2-1-2m.9 72-.5 2.1m-6.9.8 6.9-.8m7.4-3.2 6.8-1.4m.6-2.6-.6 2.6m-1.8-67.4-1.4-2.5m-5.1 1.3 5.1-1.3m31.5 12.4-1.8-4.2m-5.4 2.5 5.4-2.5m5.8 18.2.9 4.8m-6 2.8 6-2.8m-13.9-24.5-1.9-3.7m-5.2 2.2 5.2-2.2m-68.4-1.4-5.2-.7m-.9 2 .9-2m7.4 74.7-6.9-.7m-.4-2 .4 2m-41.5-65.4 1.9-4m5.3 2.4-5.3-2.4m117 44.8-.2 4.1m-6.5 2.3 6.5-2.3m-20.9 12.9 6.7-1.8m.6-3.1-.6 3.1m-9.1-63 5.3-1.6m1.6 2.9-1.6-2.9m-72.4 2.3 1.3-2.5m39.6 75.1 6.9-.5m.3-2-.3 2m-41.3-73.4-5.2-1.2m97.5 16.2-1.6-4.5m-5.6 2.7 5.6-2.7m-53.2-10.5 5.2-.6m.7 2-.7-2m-43.4 70.6-6.8-1.3m-.6-2.6.6 2.6m82.1-65.4-1.8-3.3m-5.3 1.9 5.3-1.9m-114 30.7-.5 4.8m6.1 2.7-6.1-2.7m130.5-8.2 5.9-2.8m-1.1-4.8 1.1 4.8m-24.4 36 6.6-2.1m.5-3.6-.5 3.6m-112.7-15.6v4.4m6.4 2.4-6.4-2.4m49.1 24.5.3 2m6.9.3-6.9-.3m70.5-29.6 6.3-2.6m-.3-4.6.3 4.6m-73.8-41.3-5.2-.5m-.7 2 .7-2m75.2 18.1 5.7-2.8m1.3 4.7-1.3-4.7m-4.5 7.5 5.8-2.8m-66.2 54.4 7-.2m.2-2-.2 2m3.6-71.9-.5-2m-5.2.4 5.2-.4m17.8 1.9-1.2-2.5m-5.3 1.1 5.3-1.1m-90.6 12.5 1.7-4.3m5.5 2.4-5.5-2.4m62.2 66.5-6.9-.1m-.1-1.9.1 1.9m-40.9-69.7-5.4-2.1m-1.8 3.8 1.8-3.8m81.9 64.6-.5 2.6m-6.9 1.1 6.9-1.1m-28.1 2.7-.1 2m-33.9-72.8-5.3-1.5m-1.6 2.9 1.6-2.9m28 2.5.4-2.1m5.2.3-5.2-.3m-32 61.2.5 3.1m6.8 1.6-6.8-1.6m98.4-55.7-1.8-4m-5.4 2.3 5.4-2.3m-116.8 28.7-6.1-2.8m.8-4.8-.8 4.8m11.8 18.9.2 4.1m6.6 2.2-6.6-2.2m61.7-51.3-.2-2m-5.3.1 5.3-.1m-52.7 3.9 1.7-3.3m5.3 1.7-5.3-1.7m40.3 1.6.2-2.1m5.2 0h-5.2m5.3 2.1-.1-2.1m-49.6 55.4.4 3.6m6.8 1.9-6.8-1.9m27.5-58.5-5.3-1m-1.1 2.5 1.1-2.5m-1.1 67.4.4 2.6m7 1-7-1m-30.1-55.6-5.7-2.5m-1.5 4.5 1.5-4.5m120.4 27.6 6.2-2.6m-.5-4.8.5 4.8m-12.5 13.9 6.5-2.4m0-4.3v4.3m-118.5-19.8-6-2.7m1.1-4.8-1.1 4.8m102.5-22.4-1.5-2.9m-5.3 1.3 5.3-1.3m-90 44.7-6.4-2.5m.2-4.6-.2 4.6m91.9 24 6.9-1.4m.4-3.2-.4 3.2m-13.2-62.3-1-2.6m-5.4.9 5.4-.9m-81 18.5-5.8-2.6m-1.3 4.7 1.3-4.7m107.1-11.1 5.5-2m1.7 3.8-1.7-3.8m-108 20.5-5.9-2.7m80.9 50.3 7.1-.9m.3-2.5-.3 2.5m29.2-59.3 5.6-2.4m1.6 4.4-1.6-4.4m-14.4-3.5-1.6-3.4m-5.4 1.6 5.4-1.6m-96.8 8.1 1.7-4m5.6 2.1-5.6-2.1m105.2 44.8-.2 4m-6.8 2.1 6.8-2.1m-14 7.4 6.9-1.7m.3-3.6-.3 3.6m-59.6-58.8-5.4-.7m-.9 2.6.9-2.6m8 70.7-7-.7m-.3-2.6.3 2.6m-14.1-66.7 1.3-3m5.4 1.2-5.4-1.2m95.3 26 .8 4.8m-6.2 2.6 6.2-2.6m-90.7 35.3-7-1.3m-.4-3.1.4 3.1m52.3-62.1-.8-2.6m-5.4.6 5.4-.6m-1.5 67.4-.3 2.6m-7 .5 7-.5m45-53.6-1.5-4.6m-5.7 2.4 5.7-2.4m-114.5 32.1v4.3m6.6 2.2-6.6-2.2m14.5-43.4-5.5-1.9m-1.6 3.8 1.6-3.8m-14.7 29.2-.5 4.7m6.4 2.5-6.4-2.5m20.7-32 1.5-3.5m5.6 1.6-5.6-1.6m96.1 27.2 6.1-2.6m-1-4.8 1 4.8m-11.2 19.1 6.5-2.3m-.2-4.6.2 4.6m-67.9-41.8-5.5-.6m-.6 2.7.6-2.7m9.7 70.4-7.1-.4m-.2-2.6.2 2.6m43.2-66.7-1.2-3.1m-5.5 1.2 5.5-1.2v.01"/><path d="m181.925 144.15-1.2-4.7m-5.9 2.4 5.9-2.4m-95.1 45.2-6.9-1.6m-.4-3.6.4 3.6m-15.4-47 1.5-4.4m5.8 2.3-5.8-2.3m78.3 58 7.1-1.2m.3-3.1-.3 3.1m25.7-41.8 6-2.5m-9.9-11.3-1.6-4.1m-5.7 2 5.7-2m-48.8 65 7.1-.2m.1-2.6-.1 2.6m-50.4-14.1-6.8-1.9m-.2-4.1.2 4.1m61.2-51.2-.6-2.7m-5.5.4 5.5-.4m-17.7 67.5.1 2.6m7.1 0h-7.1m7.1-2.5v2.5m-11.8-67.2.5-2.6m5.4.3-5.4-.3m-18.4 3.3 1.1-3.1m5.5 1.1-5.5-1.1m57.6 2.5 5.6-1.5m1.4 3.5-1.4-3.5m-35-.9 5.4-.2m.3 2.7-.3-2.7m-66.9 26.2-.7 4.9m6.4 2.4-6.4-2.4m98.6-26.5 5.6-1.7m1.5 3.8-1.5-3.8m-63.1 63.1-7.1-1m-.3-3.1.3 3.1m22.6-62.2.1-2.6m5.5 0h-5.5m5.5 2.7v-2.7m50.5 43.8v4.4m-6.8 2 6.8-2m-109.8-31.8 1.4-4.6m5.9 2.3-5.9-2.3m87.2 49.3 7-1.5m.3-3.6-.3 3.6m20-27.5.5 4.8m-6.5 2.3 6.5-2.3m-33.1-33.3-1-3.1m-5.6.9 5.6-.9m-79 37.6-.2 4.6m6.6 2.2-6.6-2.2m100.2 7.5-.2 4.1m-6.9 1.7 6.9-1.7m-94.1-44.6 1.5-4.2m5.7 1.9-5.7-1.9m-11.4 15.7-1 4.8m6.3 2.5-6.3-2.5m106.4-15.3 5.9-2.1m1.5 4.4-1.5-4.4m-36 57.6 7.1-.8m.3-3.1-.3 3.1m-75.2-46.6-6-2.4m-1.2 4.8 1.2-4.8m30-13.4-5.6-1.3m-1.3 3.5 1.3-3.5m-19.4 21.9-6.2-2.4m43.5-19.4-5.7-.8m-.8 3.1.8-3.1m-13.5 4.2-5.8-1.6m-1.4 3.8 1.4-3.8m6.1 53.2.3 3.6m7.1 1.3-7.1-1.3m14.2 2.3.3 3.1m7.1.7-7.1-.7m-28.8-20.9v4.3m6.9 2-6.9-2m99.7-14.8 6.5-2.3m-.7-4.8.7 4.8m-38.4-27.6-.8-3.1m-5.6.7 5.6-.7m36.5 16.2-1.3-4.6m-6.1 2.2 6.1-2.2m-28.6-9.4 5.7-1.2m1.2 3.5-1.2-3.5m-72.4 48.8.1 4m7 1.6-7-1.6m50.5 11.5 7.2-.5m.2-3.1-.2 3.1m30.1-55.5-1.4-4.2m-5.8 1.8 5.8-1.8m6.8 32.7.2 4.6m-6.8 2.1 6.8-2.1m-106.3-10.5-.5 4.8m6.6 2.2-6.6-2.2m4.3-24 1.4-4.4m5.9 1.9-5.9-1.9m32.9-4.8.7-3.1m5.6.5-5.6-.5m46.6 55.7-.3 3.6m-7.1 1.2 7.1-1.2m-36.1 5.8-7.2-.4m-.1-3.1.1 3.1m44.6-60.6 5.8-1.5m1.3 3.9-1.3-3.9m18.3 18 .9 4.9m-6.4 2.3 6.4-2.3m-8.2-7.5 6.2-2.2m1.1 4.8-1.1-4.8m-45.9 46.1-.1 3m-7.2.3 7.2-.3m40.8-42 6.3-2.3m-49-19.9 5.8-.4m.5 3.1-.5-3.1m-35 2-5.8-1.1m-1.1 3.5 1.1-3.5m22.5 60.8v3.1m7.2.1-7.2-.1m7.2-3v3.1m36.4-15 6.9-1.8m0-4.3v4.3m-55.5-44.7.4-3.2m5.8.3-5.8-.3m41 55.2 7-1.5m.2-4-.2 4m-65.4 2.1.3 3.6m7.1 1-7.1-1m34.5-56-.3-3.2m-5.7.2 5.7-.2m-50.4 9.1 1.3-4.2m5.9 1.7-5.9-1.7m-11.8 21.1-.6 4.8m6.5 2.2-6.5-2.2m2.5-14.5 1.3-4.7m6.1 2-6.1-2m21.6-7.6-5.8-1.3m-1.3 3.9 1.3-3.9m36.2-2.5-5.6-.1m-.2 3.2.2-3.2m23.5 1.9 5.8-.9m.9 3.5-.9-3.5m-23.6 2.2-.1-3.1m-43 44.1-6.9-1.9m.2-4.6-.2 4.6m96.1-29.7-1.3-4.5m-6 1.8 6-1.8m4.9 23.7.5 4.8m-6.8 2.1 6.8-2.1m-35.3 23.9 7.2-.8m.2-3.6-.2 3.6m-70.9-31.7-6.5-2.1m.9-4.9-.9 4.9m.9-4.9 1-4.8m6.3 2-6.3-2m17.3 34 .1 4m7.1 1.3-7.1-1.3m18.2-51.9-5.8-.8m-.9 3.6.9-3.6m-19.5 42.7v4.4m7 1.6-7-1.6m-4.9-25.5-6.4-2.1m78.9-16.5 6-1.2m1.1 3.9-1.1-3.9m1.1 3.9 6-1.5m1.2 4.2-1.2-4.2m-59.2 50.8.1 3.6m7.3.7-7.3-.7m40-54.6-.7-3.6m-5.9.7 5.9-.7m22.1 12.5 6.2-1.8m1.2 4.6-1.2-4.6m-3 21.3 6.6-2.1m-.6-4.8.6 4.8m-95.7-18.3 1.2-4.5m6.1 1.8-6.1-1.8m88.2 29.7.2 4.6m-6.9 1.8 6.9-1.8m-36 17.8 7.3-.6m.1-3.6-.1 3.6m14.7-9.6-.1 4m-7.2 1.2 7.2-1.2m-78.9-22-.4 4.8m6.8 1.9-6.8-1.9m25.3-32.6-6-1.2m-1 4 1-4m12.1 2 .6-3.6m5.9.6-5.9-.6m47.4 48.6 7.1-1.5m0-4.3v4.3m-51 7.8.1 3.6m7.3.4-7.3-.4m55.2-41.6 6.3-2m1 4.9-1-4.9m1 4.9.8 4.9m-6.6 2 6.6-2m-87.8-16.2 1.1-4.3m6.1 1.4-6.1-1.4m50-.3-.5-3.6m-6 .5 6-.5m29.9 21.5 6.5-2m-40.6 35.4-.1 3.6m-7.3.2 7.3-.2m-36.6-9.6.1 4m7.3 1-7.3-1m21.9 2.1.1 3.6m7.2.1-7.2-.1m-5.4-54.7.4-3.6m6 .3-6-.3m30.4 2.6 6-1m.9 4-.9-4m-24.2 53.2v3.6m-40-46-6.3-1.8m-1.1 4.7 1.1-4.7m85.9.9-1.1-4.5m-6.2 1.6 6.2-1.6m-81.8 29.7-.1 4.6m7 1.6-7-1.6m.5-9.4-6.8-1.9m.6-4.9-.6 4.9m49.4-29.7 5.9-.1m.3 3.6-.3-3.6m-42 42.7v4.4m7.1 1.3-7.1-1.3m36.1-47h-5.9m-.2 3.6.2-3.6m49 30.7.3 4.8m-6.9 1.8 6.9-1.8m-18-30.2 6.2-1.3m1 4.3-1-4.3m-31.6-.3v-3.7m15 53.7 7.3-.8m.1-4-.1 4m-40.7-50.2-6.1-.8m-.8 3.9.8-3.9m-16.2 15-6.4-1.9m-.9 4.9.9-4.9m5 11.7-6.7-1.9m.8-4.9-.8 4.9m7.3-3.1-6.5-1.8m15.6-10.9-6.3-1.4m-1 4.5 1-4.5m24.4 46.4-7.3-.7m-.1-4 .1 4m62.6-37.3-1.1-4.8m-6.3 1.7 6.3-1.7m-10.3 32.1 7.1-1.4m-.2-4.6.2 4.6m-24.3-38.9 6.1-.7m.7 4-.7-4m3.9 46.6 7.2-1.2m0-4.4v4.4m-62-38.7.9-4.3m6.2 1.1-6.2-1.1m67.7 27.7 6.9-1.7m-.6-4.9.6 4.9m-79.1 7.3-7-1.6m.4-4.8-.4 4.8m58.1 13.3-.1 4m-7.3.6 7.3-.6m-27.3-50.4-6.1-.6v.01"/><path d="m102.325 136.75.6-4m52.8 15 6.6-1.7m.8 4.9-.8-4.9m-55.4 34.1.1 3.9m7.3.4-7.3-.4m-7.4-4.7-7.3-1m0-4.3v4.3m64.8-20.8 6.7-1.7m-.7-4.9.7 4.9m-16.2-16.2 6.3-1.3m-6.3 1.3-.9-4.3m8.2 7.6-1-4.6m-13.4-2 6.2-1m-19.2-1.8 6.2-.5m.5 4.1-.5-4.1m-41.4 41-7.1-1.4m.1-4.6-.1 4.6m71.3-20 6.6-1.7m-82.5-4 1-4.8m6.4 1.5-6.4-1.5m47.4 38.2v4m-7.4.2 7.4-.2m-20.3-47 .3-4m6.2.3-6.2-.3m12.6 51.2-7.3-.1m0-4v4m7.3-3.9v4m-42.4-27.8-.5 4.9m6.9 1.6-6.9-1.6m72.1 7.1 7-1.4m-.3-4.9.3 4.9m-36.5-33.6 6.2-.2m.3 4-.3-4m16.2 41v4.4m-7.3.8 7.3-.8m-48.4-38.7.7-4.4m6.3.9-6.3-.9m25.3-2.1-6.1-.1m-.1 4.1.1-4.1m-19.9 6.6-6.4-1.2m-.9 4.6.9-4.6m32.5-1.2-.1-4.1m-41.5 18 .8-4.8m6.6 1.5-6.6-1.5m70.2 21.8.1 4.6m-7.2 1.2 7.2-1.2m-64.9-15-6.8-1.6m.6-5-.6 5m76.5-9-.8-4.8m-6.5 1.3 6.5-1.3m-68.3 10.4-6.8-1.6m19.8 23.3v4.3m7.3.8-7.3-.8m34.6-42.2 6.3-.8m.7 4.4-.7-4.4m-54.9 26.9-.3 4.8m7.1 1.3-7.1-1.3m71.8-10.5.4 4.9m-7 1.5 7-1.5m-9.1-18.2-.8-4.6m-6.4 1.1 6.4-1.1m-18.6 40.7 7.4-.6m0-4.3v4.3m-34.7-38.6.6-4.4m6.4.6-6.4-.6m-2.7 38.3-7.3-1m.1-4.7-.1 4.7m56.8-25 6.6-1.3m.8 4.9-.8-4.9m-61.1-2.9-6.6-1.2m-.8 4.8.8-4.8m18.9 32.1v4.4m7.4.3-7.4-.3m43.3-21.1 6.9-1.5m-.6-4.9.6 4.9m-22.5-16-.4-4.4m-6.4.4 6.4-.4m15.5 16.9 6.8-1.4m-61.9-7.8.7-4.6m6.4.9-6.4-.9m55.2 23.7.3 4.8m-7.2 1.2 7.2-1.2m-21.8 7.2v4.4m-7.4.2 7.4-.2m14.6-10.4.1 4.6m-7.3.9 7.3-.9m-57.7-16.2-.4 4.9m7.1 1.3-7.1-1.3m29.5-25.5-6.4-.4m-.4 4.4.4-4.4m12.9 43.2-7.3-.1m0-4.3v4.3m7.3-4.2v4.3m6.4-38.6-.2-4.4m-6.4.3 6.4-.3m-33.9 12.1-6.7-1.2m-.6 4.9.6-4.9m54.6-3.1 6.6-1.1m.7 4.8-.7-4.8m-13.8-2.7 6.6-.8m.6 4.6-.6-4.6m-26.3 1.4.2-4.4m6.3.1-6.3-.1m6.3 4.5v-4.4m-14.5 37.9-7.3-.7m.1-4.6-.1 4.6m-6.6-15.4-7-1.3m.6-5-.6 5m13.7 12.1-7.3-1.1m.3-4.8-.3 4.8m1-14.7-6.8-1.3m63.6 5.7.3 4.9m-7.1 1.2 7.1-1.2m-42.2-22.2-6.6-.6m-.5 4.6.5-4.6m27.3 34.8 7.4-.5m-.1-4.6.1 4.6m-42.5-25.8.7-4.8m6.6.9-6.6-.9m47.7 5.4 6.8-1.2m.6 5-.6-5m-12.8 21.8 7.3-.9m-.2-4.8.2 4.8m-15.6-28 6.6-.4m.5 4.6-.5-4.6m15.1 12.5.5 5m-7.1 1.1 7.1-1.1m-43.2 12.1-.1 4.6m7.4.4-7.4-.4m35.9-20.6 6.9-1.1m-56.7 5.6-.3 4.9m7.1 1-7.1-1m49.6-14.3-.5-4.9m-6.7.8 6.7-.8m-12.8 26v4.6m-7.4.3 7.4-.3m-21-29.5.3-4.7m6.6.4-6.6-.4m-14.9 12.9.5-5m6.9 1-6.9-1m27.7 26.6-7.3-.1m0-4.6v4.6m-7.3-5-7.3-.7m.1-4.9-.1 4.9m21.7-28.2 6.6-.3m.3 4.7-.3-4.7m-6.4 29.6v4.7m-28.2-21.6-.4 5m7.1 1-7.1-1m28.4-17.4-6.5-.1m-.1 4.7.1-4.7m-6.9 4.3-6.8-.7m-.4 4.9.4-4.9m-.8 9.9-7-1m28.1-7.8-.1-4.6m21.7 17.9.3 5m-7.2.8 7.2-.8m-14.4 6.2 7.3-.5m-.1-4.9.1 4.9m-.9-19.8 6.9-.8m.5 4.9-.5-4.9m-6.9.8-.3-4.9m-6.8.5 6.8-.5m-28 20.1-.1 4.9m7.3.4-7.3-.4m29-10.2 7.1-.8m-.3-5 .3 5m-43 .5-.3 4.9m7.3.7-7.3-.7m35.9-9.6 7.1-.8m-35.1-3.8.3-4.9m6.8.4-6.8-.4m-.3 4.9-6.9-.7m-.4 5 .4-5m20.8 20.9 7.4-.2m-.1-4.8.1 4.8m-14.6-4.7-.1 4.9m7.3 0h-7.3m14.2-20-.2-4.9m-6.8.2 6.8-.2m.6 19.9 7.3-.6m-.2-5 .2 5m-14.6.8v4.8m-14.4-10.2-7.1-.7m.3-5-.3 5m7.3-4.4-7-.6m14.2-4 .2-4.8m6.7 0h-6.7m13.7 4.7 6.9-.5m.3 4.9-.3-4.9m-13.9.7v-4.9m-14.3 14.5-.1 4.9m7.3.4-7.3-.4m21.7-4.7 7.2-.6m-.3-5 .3 5m-21.4-9.3-6.9-.3m-.3 4.9.3-4.9m21 5.2 7-.6m-6.9 5.6.1 5m-7.3.2 7.3-.2m-.2-10-.2-5m-7 .2 7-.2m-6.9 15.2-7.2-.1m0-5v5m0-5-7.2-.3m.2-5.1-.2 5.1m7.3-4.7-7.1-.4m14.2 5.5v5m-7.1-10.1.1-5m6.9.1-6.9-.1m7 5.1-.1-5m7.2 4.8.1 5m-7.2.2 7.2-.2m-7.2-4.8 7.1-.2m-14.2.1-.1 5m7.2.1-7.2-.1m7.2-4.9-7.1-.1m7.1.1v5.01"/></g><path d="m206.557 66.119c0 32.096-38.847 58.155-86.696 58.155-47.85 0-86.697-26.059-86.697-58.155 0-32.097 38.847-58.155 86.697-58.155 47.849 0 86.696 26.058 86.696 58.155z" stroke="#f0f" stroke-width=".7"/><path d="m178.714 98.708c-.162-13.117 6.181-25.167 16.29-30.949 10.11-5.781 22.174-4.257 30.984 3.915 8.81 8.171 12.788 21.526 10.216 34.297" stroke="#f00" stroke-width=".6"/></g></svg>